<?xml version="1.0" encoding="utf-8"?>
<!-- Generator: Adobe Illustrator 21.0.2, SVG Export Plug-In . SVG Version: 6.00 Build 0)  -->
<svg version="1.1" id="Layer_1" xmlns="http://www.w3.org/2000/svg" xmlns:xlink="http://www.w3.org/1999/xlink" x="0px" y="0px"
	 viewBox="0 0 73 73" style="enable-background:new 0 0 73 73;" xml:space="preserve">
<style type="text/css">
	.st0{fill:#EF798A;}
	.st1{opacity:0.3;enable-background:new    ;}
	.st2{fill:#FFFFFF;}
</style>
<title>Twitter Icon</title>
<g id="Layer_2">
	<g id="Layer_1-2">
		<circle class="st0" cx="36.5" cy="36.5" r="36.5"/>
		<path class="st1" d="M39.5,20l5.1,6.8l13.3-2.6L47.2,37.8l2.5,5.9L30,72.4C10.1,68.8-3,49.8,0.6,29.9c0.1-0.3,0.1-0.6,0.2-0.8
			l16.4-9.3c1.7,4.3,4.6,8.1,8.4,10.8L39.5,20z"/>
		<path class="st2" d="M58.9,22.7l-4.8,1.4c0,0,3.2-2.7,3.8-5.4c-1.9,1.2-3.9,2-6.1,2.3c-1.2-3.3-15.9-6.8-15.9,8.2
			c-3.6,1-14-3.2-18.7-9.5c-0.3,0.7-4.6,7.2,2.7,12.5c-0.8,0-1.7-0.5-3.9-1c0,7.6,7.2,9.2,7.2,9.2c-1.3,0.2-2.7,0.2-4,0.1
			c1.2,3.6,4.5,6.2,8.3,6.5c0,0-3.1,3.7-13.3,3.6c15.5,9.7,39.5,2,40.6-23.2C56.5,26.2,57.9,24.6,58.9,22.7z"/>
	</g>
</g>
</svg>
