<svg xmlns="http://www.w3.org/2000/svg" viewBox="0 0 320 320"><defs><style>.cls-1{fill:#ece4b7;}</style></defs><title>github-icon</title><g id="Layer_2" data-name="Layer 2"><g id="components"><path class="cls-1" d="M160.72,12.12A143.94,143.94,0,0,1,218.31,24a146.67,146.67,0,0,1,47.11,32.57A152.75,152.75,0,0,1,297.28,105a156.08,156.08,0,0,1-17,149.39,151.18,151.18,0,0,1-32.07,32.93,147.33,147.33,0,0,1-36.49,20.1v-4.63c.07-8.48.14-21.24.14-35.92a63.58,63.58,0,0,0-3.49-21.74c26.51-5.92,65.57-24,65.57-89.38,0-17.53-5.06-33.14-15.11-46.4,2.21-9.19,3.92-25.37-3.63-44.9l-1.92-5.06-5.13-1.71a23.2,23.2,0,0,0-7.13-.93c-8.2,0-22,2.78-42.41,16.11a157.72,157.72,0,0,0-37.85-4.7h-.14a157.27,157.27,0,0,0-37.85,4.7C102.41,59.52,88.59,56.67,80.39,56.67a22.47,22.47,0,0,0-7.13,1l-5.13,1.71-1.92,5.06c-7.56,19.6-5.84,35.78-3.63,44.9-10,13.33-15.11,28.94-15.11,46.4,0,35.35,11.4,56.95,26.09,70.21a39.68,39.68,0,0,0-22.24-9.27h-.93c-9.34,0-15.89,3.85-18,10.48-3.35,10.55,7,17.82,10.41,20.24l.36.43,1.07.43c1.14.71,7.2,5,12,17.46A43,43,0,0,0,66,281.54a153.36,153.36,0,0,1-53.53-117.1,154.7,154.7,0,0,1,11.69-59.37A150.78,150.78,0,0,1,56,56.67a147.44,147.44,0,0,1,47.11-32.57,144,144,0,0,1,57.59-12M75.19,228c12,10.07,25.93,14.93,37.36,17.5a49.65,49.65,0,0,0-1.5,4.93,30.16,30.16,0,0,1-8.36,1.29c-7.79,0-13.57-3.86-18.29-12.07A44.86,44.86,0,0,0,75.19,228m2.64,63.29a55.09,55.09,0,0,0,26.57,6.29c1.57,0,3.14-.07,4.79-.14,0,2,0,3.93.07,5.64s0,3.29.07,4.64a143.75,143.75,0,0,1-31.5-16.43M160,0C71.64,0,0,73.5,0,164.07,0,236.57,45.86,298,109.43,319.71a12.54,12.54,0,0,0,2.71.29c5.93,0,8.21-4.36,8.21-8.14s-.14-14.21-.21-27.93A73.14,73.14,0,0,1,104,285.86c-30.79,0-37.79-23.93-37.79-23.93C58.93,243,48.43,237.79,48.43,237.79c-13.93-9.79-.07-10.14,1-10.14h.07C65.57,229.07,74,244.71,74,244.71c8,14,18.71,18,28.29,18a45,45,0,0,0,18.29-4.29c1.43-10.57,5.57-17.79,10.14-21.93-35.5-4.14-72.86-18.21-72.86-81.07,0-17.93,6.21-32.57,16.43-44-1.64-4.14-7.14-20.86,1.57-43.43a13.32,13.32,0,0,1,3.57-.36c5.79,0,18.86,2.21,40.43,17.21a148.72,148.72,0,0,1,80.14,0c21.57-15,34.64-17.21,40.43-17.21A13.32,13.32,0,0,1,244,68c8.71,22.57,3.21,39.29,1.57,43.43,10.21,11.5,16.43,26.14,16.43,44,0,63-37.43,76.86-73.07,80.93,5.71,5.07,10.86,15.07,10.86,30.36,0,21.93-.21,39.64-.21,45,0,3.86,2.21,8.21,8.14,8.21a13.82,13.82,0,0,0,2.86-.29C274.21,298,320,236.5,320,164.07,320,73.5,248.36,0,160,0Z"/></g></g></svg>