<svg xmlns="http://www.w3.org/2000/svg" viewBox="0 0 111 111"><title>header-img</title><g id="Layer_2" data-name="Layer 2"><g id="components"><path d="M0,0H.3c0,1.09,0,2.19,0,3.28a2.77,2.77,0,0,0,0,.47,1.22,1.22,0,0,1,.8.84,1.1,1.1,0,0,1-.2,1A1.39,1.39,0,0,1,.3,6c0,1.28,0,2.56,0,3.84a2.11,2.11,0,0,0,0,.42,1.34,1.34,0,0,1,.59.41,1.12,1.12,0,0,1,.18,1.06,1.28,1.28,0,0,1-.79.78c0,1.14,0,2.29,0,3.43a7.86,7.86,0,0,0,0,.82,1.24,1.24,0,0,1,.59.4,1.18,1.18,0,0,1-.07,1.5A1.33,1.33,0,0,1,.3,19a1.15,1.15,0,0,0,.18.22C2.4,21.15,4.35,23.09,6.28,25a.3.3,0,0,0,.27.11H21.1q0-3.56,0-7.12c0-.13,0-.28.1-.37.75-.76,1.52-1.5,2.26-2.27a1.46,1.46,0,0,1-.25-.75,1.17,1.17,0,0,1,.92-1.13,1.3,1.3,0,0,1,1,.23l4.6-4.6L30,8.87a1.52,1.52,0,0,1-.25-.75A1.16,1.16,0,0,1,30.6,7a1.2,1.2,0,0,1,1,.22c.9-.87,1.78-1.76,2.67-2.66.08-.12,0-.29.05-.43,0-1.38,0-2.76,0-4.14H35q0,2.16,0,4.32a.3.3,0,0,1-.1.26L32.58,6.91c-.22.23-.46.44-.66.69a1.46,1.46,0,0,1,.1.68,1.17,1.17,0,0,1-.91,1,1.49,1.49,0,0,1-.76-.08c-.65.61-1.27,1.26-1.91,1.88l-2.67,2.68a3.39,3.39,0,0,0-.34.37,1.45,1.45,0,0,1,.08.79,1.21,1.21,0,0,1-1,.88,1.81,1.81,0,0,1-.68-.1c-.63.58-1.21,1.2-1.83,1.79-.1.11-.24.21-.22.37,0,2.65,0,5.3,0,7.95l-.32,0H6.73c-.15,0-.34,0-.44-.1C4.19,23.62,2.1,21.51,0,19.43V18.37a.57.57,0,0,0,.49-.47A.57.57,0,0,0,0,17.38V11.86c.28,0,.56-.3.47-.6s-.27-.33-.47-.4V5.37c.28-.06.59-.34.45-.65S.18,4.45,0,4.37V0M30.65,7.7a.5.5,0,0,0-.24.47.47.47,0,1,0,.86-.3c-.11-.23-.4-.21-.62-.17m-6.45,6.49a.45.45,0,0,0-.28.43.47.47,0,1,0,.83-.29A.5.5,0,0,0,24.19,14.19Z"/><path d="M2.15,0h.68q0,7,0,14c0,.55,0,1.1,0,1.64H20a5.25,5.25,0,0,0,.55,0,1.48,1.48,0,0,0,.21-.19c1.94-2,3.89-3.9,5.84-5.84,1.68-1.68,3.34-3.37,5-5a.33.33,0,0,0,.12-.29c0-1.44,0-2.88,0-4.32h.66c0,1.46,0,2.92,0,4.38,0,.21-.21.32-.32.46q-2.41,2.42-4.84,4.83C25.5,11.44,23.74,13.23,22,15c-.46.45-.89.92-1.37,1.35a5.91,5.91,0,0,1-.68,0H2.15Q2.14,8.17,2.15,0Z"/><path d="M5,0h.37c0,.19,0,.37,0,.56a1.77,1.77,0,0,1,.54.56,1.12,1.12,0,0,1-.1,1.18,2.22,2.22,0,0,1-.43.38c0,1.39,0,2.78,0,4.18,0,.1,0,.24.09.28a1.15,1.15,0,0,1,.45.48A1.13,1.13,0,0,1,5.7,8.92a3.82,3.82,0,0,1-.32.26c0,1.32,0,2.64,0,4,1.59,0,3.18,0,4.76,0H20.2c.17,0,.37,0,.49-.11.35-.36.71-.7,1-1.07a1.43,1.43,0,0,1-.14-.73,1.18,1.18,0,0,1,1.08-1,1.67,1.67,0,0,1,.67.15C24.92,8.83,26.46,7.26,28,5.71l.14-.45a1.17,1.17,0,0,1,.23-1.14,1.32,1.32,0,0,1,.81-.41c0-1.23,0-2.47,0-3.7h.68c0,1.23,0,2.46,0,3.69,0,.1,0,.22.08.29a1.19,1.19,0,0,1,.41,1.13A1.18,1.18,0,0,1,29.29,6a1.41,1.41,0,0,1-.7-.2c-.92.87-1.8,1.79-2.7,2.68-.72.73-1.47,1.45-2.17,2.2a2,2,0,0,1,.19.63,1.17,1.17,0,0,1-1.12,1.19,1.57,1.57,0,0,1-.7-.18c-.43.38-.82.81-1.23,1.21-.13.11-.23.3-.43.27-5.24,0-10.49,0-15.73,0,0-1.51,0-3,0-4.55a1.36,1.36,0,0,1-.61-.33,1.13,1.13,0,0,1-.25-1.27A1.27,1.27,0,0,1,4.68,7c0-1.4,0-2.81,0-4.21a2,2,0,0,1-.52-.24A1.14,1.14,0,0,1,3.8,1.21,1.26,1.26,0,0,1,4.68.47c0-.16,0-.32,0-.47m0,1.18a.49.49,0,0,0-.24.65A.5.5,0,0,0,5.13,2a.48.48,0,0,0,.05-.76.6.6,0,0,0-.49-.08M29.15,4.41a.49.49,0,0,0-.31.7.48.48,0,0,0,.82,0,1.17,1.17,0,0,0,0-.46.47.47,0,0,0-.51-.22M4.69,7.69a.47.47,0,0,0-.23.63.45.45,0,0,0,.67.2.48.48,0,0,0,.08-.73c-.12-.16-.35-.13-.52-.1m18,3.22a.49.49,0,0,0-.33.63.47.47,0,1,0,.33-.63Z"/><path d="M7.24,0H7.9c0,3.53,0,7.05,0,10.58a6.16,6.16,0,0,0,.67,0H20.32c.13,0,.28,0,.37-.1C22.5,8.67,24.34,6.87,26.15,5c.07-.06.06-.17.07-.25,0-1.59,0-3.19,0-4.78h.68q0,2.42,0,4.84a.3.3,0,0,1-.11.25c-2,2-4,4-6,6a.31.31,0,0,1-.26.13H7.27a6.47,6.47,0,0,1,0-.84Q7.24,5.21,7.24,0Z"/><path d="M10,0h.49c0,.88,0,1.77,0,2.65,0,1.57,0,3.14,0,4.71A1.35,1.35,0,0,1,11.22,7a1.15,1.15,0,0,1,1.19.64,3,3,0,0,1,.13.4c.3,0,.6,0,.9,0a1.93,1.93,0,0,1,.31-.66,1.17,1.17,0,0,1,1.37-.28A1.29,1.29,0,0,1,15.8,8h.91A1.79,1.79,0,0,1,17,7.42,1.3,1.3,0,0,1,17.9,7a1.31,1.31,0,0,1,.91.49A1.79,1.79,0,0,1,19,8c.31,0,.62,0,.94,0a1.16,1.16,0,0,1,.69-.95,1.3,1.3,0,0,1,.9,0c.66-.6,1.27-1.25,1.91-1.88.09-.1.22-.2.2-.35,0-1.61,0-3.22,0-4.83h.65c0,1.61,0,3.22,0,4.84a.44.44,0,0,1-.11.27c-.74.76-1.5,1.49-2.23,2.26a1.61,1.61,0,0,1,.28.65,1.18,1.18,0,0,1-.81,1.22,1.11,1.11,0,0,1-.87-.07,2.9,2.9,0,0,1-.49-.42c-.4,0-.81,0-1.21,0-.19.13-.31.35-.54.43A1.14,1.14,0,0,1,17,8.91c-.08-.06-.13-.19-.25-.19h-1c-.08,0-.19,0-.25.06a1.26,1.26,0,0,1-.62.43,1.1,1.1,0,0,1-1-.13c-.15-.1-.25-.25-.39-.36a10.8,10.8,0,0,0-1.24,0,1.34,1.34,0,0,1-.71.5,1.28,1.28,0,0,1-1.3-.51H9.81A26.9,26.9,0,0,1,9.8,6q0-3,0-6m8.06,7.64a.5.5,0,0,0-.45.47.49.49,0,0,0,.44.49.47.47,0,0,0,.49-.49.48.48,0,0,0-.48-.47m3.28,0-.17,0a.48.48,0,0,0,0,.88.43.43,0,0,0,.53-.15A.53.53,0,0,0,21.56,8a.5.5,0,0,0-.42-.31m-9.94.05a.44.44,0,0,0-.28.28.48.48,0,0,0,.64.58.49.49,0,0,0,.15-.76.52.52,0,0,0-.52-.1m3.22,0a.47.47,0,0,0-.25.43.49.49,0,0,0,.4.49A.5.5,0,0,0,15,7.8.62.62,0,0,0,14.42,7.69Z"/><path d="M12,0h.92c0,1.24,0,2.47,0,3.7A1.23,1.23,0,0,1,14,4.58a1.27,1.27,0,0,1-.11.9c2.08,0,4.17,0,6.25,0a2,2,0,0,0,.33,0A2.69,2.69,0,0,0,21,5a4.91,4.91,0,0,0,0-.55Q21,2.22,21,0h.68c0,1.59,0,3.19,0,4.78a.53.53,0,0,1-.14.33c-.33.33-.66.67-1,1-.09.1-.23.07-.35.08H16.64c-1.46,0-2.92,0-4.39,0,0-.11,0-.22,0-.33a2,2,0,0,1-.41-.56,1.14,1.14,0,0,1,.26-1.21c.07-.08.18-.15.16-.27,0-1.26,0-2.53,0-3.79m.68,4.41a.49.49,0,0,0-.35.26c0,.18-.06.42.11.54a.46.46,0,1,0,.24-.81Z"/><path d="M36,0h1.09c0,.16,0,.31,0,.47a1.56,1.56,0,0,1,.63.34,1.2,1.2,0,0,1,.31.9,1.14,1.14,0,0,1-.52.86c-.14.08-.29.13-.43.19,0,.52,0,1,0,1.57a.27.27,0,0,1-.08.22L24.13,17.42a.37.37,0,0,0-.1.31Q24,22.86,24,28c-2.31.11-4.63-.33-6.89,1.11l-9.37-.78c-.47-.45-1-.26-1.46-.33a4.66,4.66,0,0,1-.48-.46c-1.94-2-3.9-3.88-5.84-5.84V21l6.23,6.24a.28.28,0,0,0,.25.09c5.63,0,11.26,0,16.9,0h0q0-4.85,0-9.69c0-.12.07-.21.15-.28L36.3,4.58c.14-.1.11-.28.11-.43,0-.5,0-1,0-1.51-.1-.09-.21-.17-.31-.26a1.11,1.11,0,0,1-.31-.85,1.18,1.18,0,0,1,.6-1,5.65,5.65,0,0,0,0-.58m.79,1.18a.48.48,0,0,0-.05.86c.19,0,.45.07.58-.1a.47.47,0,0,0-.07-.68A.6.6,0,0,0,37.2,1.18Z"/><path d="M39,0h1.08q0,2.19,0,4.38c0,.24-.23.36-.37.52L26.94,17.67c-.07.09,0,.23,0,.34,0,4,0,7.95,0,11.92,0,.27.19.48.23.75a1.25,1.25,0,0,1-.08.68,1.15,1.15,0,0,1-2,.13,1.78,1.78,0,0,1-.2-.56c-.3,0-.61,0-.91,0a1.26,1.26,0,0,1-.59.94,1.14,1.14,0,0,1-1.3-.08,1.36,1.36,0,0,1-.47-.86h-.89a2,2,0,0,1-.22.59,1.14,1.14,0,0,1-1.86.08,1.49,1.49,0,0,1-.27-.66,8.52,8.52,0,0,0-.91,0,1.5,1.5,0,0,1-.29.7,1.16,1.16,0,0,1-1.21.35,1.21,1.21,0,0,1-.82-1.05c-.3,0-.61,0-.91,0a1.33,1.33,0,0,1-.54.91,1.15,1.15,0,0,1-1.47-.15,1.32,1.32,0,0,1-.34-.76c-.31,0-.61,0-.92,0A1.21,1.21,0,0,1,10,32a1.17,1.17,0,0,1-1.24-.62,2.21,2.21,0,0,1-.12-.47,8.79,8.79,0,0,0-.95,0,1.14,1.14,0,0,1-1.56,1,1.18,1.18,0,0,1-.75-1.11,1.65,1.65,0,0,1,.26-.73c-.78-.79-1.56-1.57-2.35-2.35S1.6,26.09.75,25.28a1.75,1.75,0,0,1-.75.28v-.67c.26-.06.56-.3.47-.6s-.26-.33-.47-.4v-.68a1.36,1.36,0,0,1,.74.28,1.29,1.29,0,0,1,.43.86,3.08,3.08,0,0,1-.11.51c.19.24.43.44.64.67L4,27.8c.68.66,1.33,1.36,2,2a1.61,1.61,0,0,1,.84,0,1.67,1.67,0,0,1,.61.42c.41,0,.83,0,1.24,0,.14,0,.22-.12.31-.19a1.11,1.11,0,0,1,1.34-.13c.14.08.23.23.38.31a12.84,12.84,0,0,0,1.34,0,1.32,1.32,0,0,1,.83-.46,1.3,1.3,0,0,1,1.07.46c.33,0,.67,0,1,0,.14,0,.32,0,.42-.09a1.17,1.17,0,0,1,1.23-.34c.25.06.41.28.61.42s.6,0,.91,0,.42,0,.55-.13a1.14,1.14,0,0,1,1.65,0c.12.17.33.12.5.12s.64,0,1,0a1.41,1.41,0,0,1,.89-.47,1.22,1.22,0,0,1,1,.46,4.81,4.81,0,0,0,.72,0,4.12,4.12,0,0,0,.66,0,1.85,1.85,0,0,1,.49-.38,1.59,1.59,0,0,1,.66-.09c0-4,0-7.92,0-11.88,0-.12.08-.2.15-.28L39.29,4.64a.3.3,0,0,0,.12-.27c0-1.46,0-2.92,0-4.38M6.36,30.42a.51.51,0,0,0-.25.72.49.49,0,0,0,.83-.08.71.71,0,0,0-.06-.47.49.49,0,0,0-.52-.16m3.28,0a.48.48,0,0,0-.31.67.51.51,0,0,0,.41.26.47.47,0,1,0-.09-.92m3.22,0a.47.47,0,0,0-.22.75.46.46,0,0,0,.82-.26.47.47,0,0,0-.6-.49m3.28,0a.47.47,0,0,0-.07.89.48.48,0,0,0,.65-.35.49.49,0,0,0-.59-.54m3.23,0a.47.47,0,0,0-.28.68.48.48,0,0,0,.85,0c0-.18.05-.4-.11-.53a.48.48,0,0,0-.47-.11m3.22,0a.48.48,0,0,0-.3.47.46.46,0,0,0,.5.44.47.47,0,0,0,.42-.58.48.48,0,0,0-.62-.34m3.28,0c-.14,0-.29.15-.3.31s0,.35.09.46a.48.48,0,0,0,.71,0,.51.51,0,0,0,.08-.41A.45.45,0,0,0,25.87,30.42Z"/><path d="M45,0h.82c0,.45,0,.91,0,1.36C45.19,2,44.56,2.59,44,3.2c-.28.29-.58.56-.84.87A1.36,1.36,0,0,1,43.4,5a1.18,1.18,0,0,1-1.16,1,1.28,1.28,0,0,1-.79-.31c-1.57,1.54-3.12,3.11-4.68,4.67l-.06.36a1.12,1.12,0,0,1,.17.85,1.15,1.15,0,0,1-1.2.92,1.42,1.42,0,0,1-.73-.3c-1.38,1.36-2.75,2.73-4.12,4.11-.24.26-.51.48-.73.76a1.65,1.65,0,0,1,.28.59,1.19,1.19,0,0,1-.34,1,2,2,0,0,1-.6.32c0,1.39,0,2.79,0,4.18a2,2,0,0,1,.57.3,1.15,1.15,0,0,1-.2,1.87l-.37.15q0,2.09,0,4.18a1.25,1.25,0,0,1,.87.75,1.15,1.15,0,0,1-.34,1.3,2.59,2.59,0,0,1-.52.27c0,.14,0,.31-.13.4l-1,.94c-.07.08-.19.05-.29.06H6.56a.32.32,0,0,1-.28-.12C4.18,31.22,2.08,29.14,0,27v-.66q3.16,3.17,6.33,6.32l.17.07H28.2c.21,0,.32-.2.46-.31a.51.51,0,0,0,.08-.54,3.74,3.74,0,0,1-.33-.25,1.18,1.18,0,0,1-.1-1.46,2.71,2.71,0,0,1,.45-.42q0-2.17,0-4.34a2.68,2.68,0,0,1-.45-.42,1.18,1.18,0,0,1-.07-1.22,1.39,1.39,0,0,1,.5-.49,4,4,0,0,0,0-.71c0-1.19,0-2.38,0-3.57,0-.17-.16-.21-.26-.3a1.15,1.15,0,0,1,.18-1.87,1.34,1.34,0,0,1,1-.09c.31-.29.6-.59.9-.88,1.36-1.37,2.75-2.72,4.09-4.11a1.32,1.32,0,0,1,.07-.94,1.18,1.18,0,0,1,.84-.62,2.28,2.28,0,0,1,.61,0c.38-.34.73-.72,1.11-1.08L40,6.46c.38-.39.79-.76,1.15-1.18a1.47,1.47,0,0,1-.05-.58,1.17,1.17,0,0,1,.83-.93,1.63,1.63,0,0,1,.75,0c.76-.73,1.5-1.49,2.25-2.23.07-.08.19-.16.19-.28,0-.42,0-.84,0-1.26m-3,4.41a.47.47,0,0,0-.23.8.46.46,0,0,0,.76-.16c0-.17.06-.38-.09-.5a.47.47,0,0,0-.43-.14m-6.51,6.49a.5.5,0,0,0-.3.72.47.47,0,1,0,.3-.72M29.1,17.43a.49.49,0,0,0-.15.82.47.47,0,1,0,.15-.82m.05,6.49a.49.49,0,0,0-.3.71.47.47,0,0,0,.85-.11.46.46,0,0,0-.54-.59m-.06,6.51a.48.48,0,0,0-.26.66.53.53,0,0,0,.36.25.44.44,0,0,0,.5-.32.46.46,0,0,0-.6-.59Z"/><path d="M47,0h.77c0,.39,0,.79,0,1.18h5.38c.8,0,1.6,0,2.4,0C56.81,2.4,58,3.65,59.25,4.86c2.51,2.49,5,5,7.51,7.5q2.4,2.41,4.81,4.82c.16.21.48.34.47.63,0,5.24,0,10.49,0,15.73,5.24,0,10.49,0,15.73,0a1.92,1.92,0,0,0,.47,0c.29-.24.53-.53.81-.79L99.48,22.31c.14-.16.38-.29.34-.53q0-10.89,0-21.77h.3q0,10.9,0,21.8c1,0,1.92,0,2.88,0,.29.23.52.52.79.77L110,28.8v.28l-6.89-6.89c-.06-.09-.18-.07-.27-.07h-2.7c-.08,0-.17,0-.23.06Q94.25,27.82,88.6,33.48c-.1.1-.23.21-.21.37,0,.76,0,1.53,0,2.29a8.38,8.38,0,0,0,.62.65l12.46,12.46c.08.1.21.08.32.08h1c.09,0,.2,0,.27-.07,2.3-2.29,4.58-4.6,6.89-6.89v.28c-2.29,2.31-4.6,4.59-6.89,6.89l-.24.11c-.37,0-.75,0-1.12,0q0,17.28,0,34.56c0,1.49,0,3,0,4.46a6.62,6.62,0,0,1-.56.59c-.34.36-.72.69-1.05,1.06,0,1.82,0,3.64,0,5.46,0,4.74,0,9.47,0,14.21h-.29q0-9.77,0-19.54l.09-.22c.5-.51,1-1,1.51-1.53,0-.33,0-.67,0-1q0-19,0-38a.31.31,0,0,0-.09-.28l-9.46-9.45c-1.26-1.27-2.54-2.52-3.78-3.8,0-.76,0-1.52,0-2.28-.6,0-1.2,0-1.81,0h-14c-.18,0-.4,0-.53.12-2,2-4,3.94-5.93,5.94,0,1.35,0,2.7,0,4q0,15.87,0,31.74l-.06.14-4,4a.25.25,0,0,1-.21.07H52.42c-.09,0-.21,0-.27.07-2,2-4,4-6,6l0,.11q0,1.25,0,2.51a.49.49,0,0,0,.13.3l1.36,1.34c.08.08.18.17.17.3,0,1.41,0,2.83,0,4.24q0,7.65,0,15.3h-.31q0-9.68,0-19.37c0-.15,0-.33-.1-.44L46,88.88c-.08-.09-.19-.17-.17-.3,0-.84,0-1.67,0-2.51-1.9,0-3.81,0-5.71,0a.31.31,0,0,1-.23-.12l-8.16-8.16c-.18-.22-.48-.38-.57-.66q0-8.1,0-16.2a1.29,1.29,0,0,1-.86,0,1.13,1.13,0,0,1-.69-1.43c0-.12.13-.23.13-.36-.54-.61-1.16-1.14-1.7-1.75a11.76,11.76,0,0,1,0-1.19q0-10.36,0-20.73c-5.74,0-11.48,0-17.22,0H6.52c0,.23.06.5-.07.71C4.32,38.36,2.14,40.49,0,42.65v-.28c2-2,3.91-3.94,5.89-5.89a1.62,1.62,0,0,0,.32-.36,6,6,0,0,0,0-.8,2,2,0,0,0-.35-.39L0,29.08V28.8l6.25,6.26a.27.27,0,0,0,.22.1h21.6c.17,0,.27-.13.38-.23l2.61-2.61c.06-.06.13-.13.12-.23q0-7.16,0-14.33l.09-.21,3.11-3.11c3-3,5.94-5.93,8.91-8.91,1.39-1.39,2.79-2.76,4.16-4.17,0-.45,0-.91,0-1.36M42.3,7l-9.61,9.61c-.36.37-.74.72-1.08,1.1,0,1.65,0,3.3,0,4.94,0,3.17,0,6.34,0,9.51,4.52,0,9,0,13.57,0,.08,0,.13.05.18.1.33.32.65.65,1,1a2.24,2.24,0,0,1,.5-.25,1.15,1.15,0,0,1,1.42.88,1.16,1.16,0,0,1-.28,1q2.42,2.44,4.86,4.86a2,2,0,0,1,.52-.26,1.17,1.17,0,0,1,1.33.67,1.36,1.36,0,0,1,.07.64,1.23,1.23,0,0,1-.29.59c.44.46.89.91,1.35,1.36,1.1,0,2.21,0,3.31,0,.77-.75,1.52-1.52,2.28-2.27a6.48,6.48,0,0,1,.59-.56c1.3,0,2.59,0,3.89,0,.09,0,.14-.06.2-.11l1.64-1.64c1.42-1.4,2.8-2.83,4.23-4.23a.22.22,0,0,0,.08-.2c0-5,0-9.9,0-14.85,0-.39,0-.79,0-1.19L67.31,13Q65,10.65,62.68,8.34c-2.21-2.19-4.39-4.4-6.59-6.59-.12-.1-.2-.28-.38-.25H47.83C46,3.33,44.15,5.19,42.3,7M31.45,32.49l-2.91,2.9c-.1.08-.07.23-.08.34,0,7.31,0,14.61,0,21.92.53.55,1.08,1.08,1.62,1.61a1.26,1.26,0,0,1,.69-.3A1.17,1.17,0,0,1,32,60.08a1.44,1.44,0,0,1-.13.59c2.77,0,5.55,0,8.32,0,.17.06.28.25.42.37l4.58,4.57c.06.07.16.05.25.06h5.36A.25.25,0,0,0,51,65.6l7.77-7.77c.07-.08.19-.16.16-.28,0-4.83,0-9.65,0-14.47H56c-.15,0-.25-.11-.34-.2l-1.33-1.31a1.31,1.31,0,0,1-.88.2,1.2,1.2,0,0,1-1-1,1.31,1.31,0,0,1,.23-.81c-.63-.65-1.27-1.28-1.91-1.92-1-1-2-2-3-3a1.38,1.38,0,0,1-1.08.16,1.21,1.21,0,0,1-.75-.89,1.17,1.17,0,0,1,.2-.9c-.3-.32-.61-.64-.93-.94-1.47,0-2.94,0-4.4,0-3.14,0-6.27,0-9.41,0M46.93,33.7a.46.46,0,0,0-.22.63c.09.26.41.26.63.22a.47.47,0,0,0,.13-.75.53.53,0,0,0-.54-.1m6.5,6.49c-.28.1-.27.45-.2.68a.49.49,0,0,0,.56.18.47.47,0,0,0,.15-.79c-.13-.14-.34-.08-.51-.08m8.49.08-2.56,2.56c-.12.09-.06.25-.08.38,0,4.81,0,9.62,0,14.43l-8.12,8.12c-.1.13,0,.31-.05.47q0,4.86,0,9.73a.22.22,0,0,0,.08.21l1.27,1.26c.05.06.13.11.12.21,0,.76,0,1.53,0,2.29H62c1.25-1.23,2.47-2.48,3.72-3.71.07-.08.17-.14.16-.26q0-8.72,0-17.44c0-6.1,0-12.2,0-18.3H62.15c-.08,0-.18,0-.24.05M30.81,59.66a.46.46,0,0,0-.3.76.47.47,0,0,0,.77-.06.47.47,0,0,0-.47-.69M31.67,61c0,2.52,0,5,0,7.55,0,3,0,6,0,9l4.18,4.18q2.21,2.19,4.41,4.4c2,0,4,0,5.95,0,2-2,4-4,6-6a.25.25,0,0,0,.09-.22c0-.77,0-1.54,0-2.31,0-.09-.07-.14-.12-.2L51,76.23c-.07-.08-.18-.14-.16-.26q0-5,0-10c-1.85,0-3.71,0-5.56,0a7.14,7.14,0,0,1-.6-.57q-1.84-1.87-3.7-3.72c-.24-.23-.46-.48-.71-.69-1.32,0-2.64,0-4,0C34.73,61,33.2,61,31.67,61Z"/><path d="M57,0h.2c1.32,1.29,2.6,2.61,3.92,3.89a1.4,1.4,0,0,1,.69-.18,1.13,1.13,0,0,1,1.08,1.12,1.57,1.57,0,0,1-.15.68c1.31,1.34,2.64,2.65,4,4,.31.3.59.62.92.9a1.25,1.25,0,0,1,.89-.14,1.16,1.16,0,0,1,.88.94,1.53,1.53,0,0,1-.15.83c.78.81,1.59,1.6,2.38,2.4.28.26.52.55.81.79.45,0,.9,0,1.35,0H97.71c0-2.87,0-5.74,0-8.6q0-3.31,0-6.62h.68q0,3.71,0,7.42c0,2.82,0,5.65,0,8.47-.67,0-1.34,0-2,0H72.63a.33.33,0,0,1-.28-.09c-1.16-1.15-2.31-2.32-3.48-3.46a1.55,1.55,0,0,1-.62.16,1.17,1.17,0,0,1-1.15-1,1.26,1.26,0,0,1,.15-.81c-.77-.82-1.58-1.59-2.36-2.39s-1.66-1.68-2.52-2.49L62,6a1.16,1.16,0,0,1-1.4-1.05,1.45,1.45,0,0,1,.17-.69,7.06,7.06,0,0,0-.5-.52L56.53,0m5.13,4.41a.44.44,0,0,0-.36.48.46.46,0,0,0,.77.32.59.59,0,0,0,.11-.53.53.53,0,0,0-.52-.28m6.5,6.5a.48.48,0,0,0-.26.79.47.47,0,0,0,.8-.24A.48.48,0,0,0,68.17,10.91Z"/><path d="M59.07,0h.69c1,1,2,2,3,3C64.49,4.75,66.22,6.47,68,8.19c1.41,1.37,2.77,2.79,4.17,4.18.14.12.24.33.45.32h22.6c0-2.69,0-5.39,0-8.08,0-1.53,0-3.07,0-4.6h.66q0,5.78,0,11.57c0,.59,0,1.18,0,1.77H72.52c-.11,0-.18-.07-.25-.14-1-1-1.94-1.94-2.91-2.9q-2.41-2.42-4.83-4.84C62.7,3.65,60.89,1.82,59.07,0Z"/><path d="M62,0h.3c.19.18.37.38.57.55a1.74,1.74,0,0,1,.86,0,1.18,1.18,0,0,1,.8,1.08,2.7,2.7,0,0,1-.1.5c.83.88,1.7,1.71,2.54,2.57s1.59,1.6,2.4,2.38A1.84,1.84,0,0,1,70.11,7a1.21,1.21,0,0,1,.91.95,1.58,1.58,0,0,1-.09.68c.36.39.76.76,1.13,1.15.14.12.25.34.45.34H91.45c.39,0,.78,0,1.18,0,0-3.37,0-6.74,0-10.11h.68q0,4.55,0,9.09c0,.57,0,1.14,0,1.7H76.37c-1.32,0-2.63,0-3.95,0a7.56,7.56,0,0,1-.65-.61C71.39,9.8,71,9.39,70.62,9a1.38,1.38,0,0,1-1,.21,1.21,1.21,0,0,1-.88-1A1.34,1.34,0,0,1,69,7.38c-.77-.8-1.56-1.57-2.34-2.36S65,3.34,64.12,2.54a1.78,1.78,0,0,1-.7.25,1.17,1.17,0,0,1-1.19-1,1.38,1.38,0,0,1,.24-.87C62.19.58,61.9.3,61.61,0m1.55,1.19a.54.54,0,0,0-.23.62.49.49,0,0,0,.59.25.52.52,0,0,0,.32-.36.5.5,0,0,0-.15-.42.57.57,0,0,0-.53-.09m6.5,6.5a.51.51,0,0,0-.2.66c.12.18.36.34.57.21a.49.49,0,0,0,.14-.82A.72.72,0,0,0,69.67,7.69Z"/><path d="M64,0h.84l4.7,4.7c.9.89,1.79,1.8,2.7,2.68A1.16,1.16,0,0,1,73.52,7a1.42,1.42,0,0,1,.64.51c.4,0,.8,0,1.19,0a1.19,1.19,0,0,1,2,0c.4,0,.8,0,1.2,0a2.08,2.08,0,0,1,.51-.46,1.17,1.17,0,0,1,1.25.13,3.84,3.84,0,0,1,.31.33c.36,0,.71,0,1.07,0,.16,0,.22-.14.32-.23a1.14,1.14,0,0,1,1.69,0c.08.07.12.2.25.2.37,0,.74,0,1.11,0a1.63,1.63,0,0,1,.52-.47,1.15,1.15,0,0,1,1.11,0,3.22,3.22,0,0,1,.44.42c.4,0,.8,0,1.2,0A1.29,1.29,0,0,1,89.18,7a1.24,1.24,0,0,1,.87.19,9.32,9.32,0,0,1,0-1c0-2.07,0-4.14,0-6.22h.69q0,2,0,4c0,1.39,0,2.79,0,4.18l-.24.06a1.2,1.2,0,0,1-.8,1,1.13,1.13,0,0,1-1.27-.41,1.89,1.89,0,0,1-.24-.56c-.31,0-.62,0-.92,0a1.41,1.41,0,0,1-.3.63,1.12,1.12,0,0,1-1.27.31A1.19,1.19,0,0,1,85,8.26c-.31,0-.61,0-.92,0a1.31,1.31,0,0,1-.62.88A1.14,1.14,0,0,1,82,8.91a1.85,1.85,0,0,1-.32-.65c-.31,0-.61,0-.92,0a1.35,1.35,0,0,1-.33.67,1.16,1.16,0,0,1-1.21.29,1.24,1.24,0,0,1-.78-1c-.31,0-.62,0-.92,0a1.29,1.29,0,0,1-.62.89,1.13,1.13,0,0,1-1.4-.24,1.2,1.2,0,0,1-.31-.65c-.31,0-.63,0-.94,0a1.59,1.59,0,0,1-.27.6,1.22,1.22,0,0,1-.92.43,1.19,1.19,0,0,1-1-.76A2.24,2.24,0,0,1,72,7.85c-.17-.23-.4-.41-.59-.61C69,4.81,66.56,2.41,64.14,0m9,7.64a.49.49,0,0,0-.45.47.48.48,0,0,0,.36.47.46.46,0,0,0,.49-.18A.53.53,0,0,0,73.57,8a.54.54,0,0,0-.47-.32m3.06.05a.52.52,0,0,0-.14.77.58.58,0,0,0,.43.14.56.56,0,0,0,.35-.32c0-.17,0-.37-.12-.49s-.35-.12-.53-.09m3.28,0a.48.48,0,0,0-.27.56.46.46,0,0,0,.64.31A.48.48,0,0,0,80,7.83c-.12-.19-.36-.16-.55-.14m3.23,0a.48.48,0,0,0-.24.59.46.46,0,0,0,.62.29.47.47,0,0,0,.18-.75c-.12-.18-.36-.16-.55-.13m3.22,0a.5.5,0,0,0-.24.47.48.48,0,0,0,.62.41.48.48,0,0,0,.24-.71c-.11-.23-.4-.21-.62-.17m3.28,0a.51.51,0,0,0-.23.63.63.63,0,0,0,.34.28.58.58,0,0,0,.43-.14.67.67,0,0,0,.08-.55A.52.52,0,0,0,89.18,7.69Z"/><path d="M67,0h.38L72.1,4.73c.14.12.25.33.47.29h13.7l.31,0a1.3,1.3,0,0,1,.27-.85,1.57,1.57,0,0,1,.66-.43c0-1.24.06-2.48,0-3.72h.69q0,1.81,0,3.63a.3.3,0,0,0,.18.29,1.14,1.14,0,0,1,.46,1.3A1.16,1.16,0,0,1,87.43,6c-.25-.06-.42-.31-.7-.28H72.57a.28.28,0,0,1-.25-.1C70.46,3.73,68.58,1.88,66.72,0m21,4.41a.47.47,0,1,0,.52.63A.48.48,0,0,0,87.68,4.41Z"/><path d="M69.26,0h.69c.78.79,1.56,1.57,2.35,2.35a.31.31,0,0,0,.28.12c4.14,0,8.27,0,12.41,0Q85,1.23,85,0h.68c0,1.05,0,2.1,0,3.15H76.2c-1.26,0-2.52,0-3.78,0a7,7,0,0,1-.56-.54Z"/><path d="M71.8,0H83.11c0,.2,0,.41,0,.61H72.63c-.09,0-.2,0-.27-.06S72,.18,71.8,0Z"/><path d="M103,0h.69q0,9.66,0,19.32c.15,0,.32,0,.43.14l4.14,4.15c.93.92,1.86,1.84,2.77,2.77V27c-2.32-2.3-4.62-4.62-6.93-6.93l-.15-.07c-.32,0-.64,0-1,0C103,13.34,103,6.67,103,0Z"/><path d="M106,0h.19c0,.16,0,.31,0,.47a1.19,1.19,0,0,1,.72.33,1.13,1.13,0,0,1,.15,1.48,1.36,1.36,0,0,1-.88.51c0,1.39,0,2.78,0,4.17a1.24,1.24,0,0,1,1,.75,1.15,1.15,0,0,1-.58,1.45c-.14.06-.29.1-.43.14,0,1.39,0,2.78,0,4.16a1.24,1.24,0,0,1,.93.6,1.15,1.15,0,0,1-.46,1.58,3,3,0,0,1-.47.16c0,1,0,2.05,0,3.08,0,.15.12.24.21.34L109,21.81c.5.5,1,1,1.51,1.49l.51-.09v.67a.55.55,0,0,0-.48.56c0,.25.27.36.48.44v.67a1.5,1.5,0,0,1-.61-.19,1.29,1.29,0,0,1-.56-1,1.83,1.83,0,0,1,.27-.79c-1.49-1.5-3-3-4.48-4.48a.24.24,0,0,1-.1-.2c0-1.1,0-2.21,0-3.31a1.23,1.23,0,0,1-.52-1.24,1.48,1.48,0,0,1,.51-.76c0-1.45,0-2.9,0-4.35,0-.16-.12-.24-.22-.34a1.12,1.12,0,0,1-.23-1.26,1.76,1.76,0,0,1,.44-.54c0-1.45,0-2.91,0-4.36,0-.18-.15-.26-.24-.37a1.11,1.11,0,0,1-.1-1.41c.1-.13.23-.23.34-.36s0-.41,0-.62m-.06,1.18a.47.47,0,0,0-.06.86c.19,0,.45.07.58-.11a.46.46,0,0,0,0-.65c-.11-.15-.31-.12-.48-.1m-.05,6.51a.48.48,0,0,0-.25.42.47.47,0,1,0,.88-.2c-.08-.26-.41-.26-.63-.21m0,6.49a.47.47,0,1,0,.64.39A.48.48,0,0,0,105.46,14.19Z"/><path d="M108.06,0h.68q0,9.41,0,18.82c0,.33.33.48.51.71.59.58,1.16,1.17,1.75,1.74V22l-2.84-2.84c-.16-.13-.08-.36-.1-.54Q108.06,9.29,108.06,0Z"/><path d="M110.6,0h.4V4.38c-.2.07-.42.16-.46.39s.2.54.46.61v5.49c-.17.07-.37.13-.44.32a.44.44,0,0,0,.08.51,1.08,1.08,0,0,0,.35.18v5.51a.56.56,0,0,0-.49.52.6.6,0,0,0,.49.48v1.06l-.36-.37c-.17-.2-.44-.29-.58-.52a1.15,1.15,0,0,1-.06-1.24,1.37,1.37,0,0,1,.58-.52c0-1.44,0-2.89,0-4.33a1.25,1.25,0,0,1-.68-.78,1.11,1.11,0,0,1,.17-1,1.59,1.59,0,0,1,.51-.42c0-.76,0-1.52,0-2.28s0-1.36,0-2a1.24,1.24,0,0,1-.68-.78,1.07,1.07,0,0,1,.11-.88,1.58,1.58,0,0,1,.58-.53C110.62,2.52,110.6,1.26,110.6,0Z"/><path d="M47.8,3.42c.06-.08.16-.06.25-.06,2.59,0,5.18,0,7.77,0,1.26,1.23,2.49,2.5,3.76,3.74a1.19,1.19,0,0,1,1.05,0,1.15,1.15,0,0,1,.65,1.13,2.3,2.3,0,0,1-.13.45c1,1,2.06,2.07,3.09,3.11.61.6,1.22,1.22,1.84,1.82a1.18,1.18,0,0,1,.75-.11,1.16,1.16,0,0,1,.94,1.07,1.51,1.51,0,0,1-.13.62l2.27,2.28a1.5,1.5,0,0,1,.25.28c0,.76,0,1.51,0,2.27a1.25,1.25,0,0,1,.8.81,1.15,1.15,0,0,1-.18,1,1.38,1.38,0,0,1-.62.43c0,1.42,0,2.84,0,4.26a1.26,1.26,0,0,1,.81.81,1.11,1.11,0,0,1-.31,1.13,1.47,1.47,0,0,1-.5.31q0,2.13,0,4.26a1.21,1.21,0,0,1,.79.77,1.16,1.16,0,0,1-.81,1.47,2.2,2.2,0,0,1-.52,0,1.63,1.63,0,0,1-.57-.27c-.73.69-1.43,1.42-2.15,2.13a15.63,15.63,0,0,1-1.27,1.21,1.15,1.15,0,0,1-1.18.07A1.63,1.63,0,0,1,64,38H62l-2.7,2.7c-.08.07-.14.18-.26.17-.35,0-.7,0-1,0a1.41,1.41,0,0,1-.36.57,1.11,1.11,0,0,1-1.28.18,1.33,1.33,0,0,1-.65-.85c-.62-.66-1.29-1.28-1.92-1.93q-3-3-6-6c-.84-.85-1.67-1.71-2.52-2.54a.22.22,0,0,0-.19-.07H34.93c-.48,0-1,0-1.43,0,0-.57,0-1.14,0-1.71a1.16,1.16,0,0,1,0-1.9c0-.62,0-1.25,0-1.87,0-.91,0-1.82,0-2.73a1.26,1.26,0,0,1-.45-.65,1.18,1.18,0,0,1,.45-1.25c0-.81,0-1.62,0-2.43.3-.35.65-.66,1-1L47.8,3.42m-.15,1.21L34.18,18.12c0,.74,0,1.49,0,2.23a1.21,1.21,0,0,1,1,.87,1.23,1.23,0,0,1-.14.9,1.3,1.3,0,0,1-.89.55c-.06.55,0,1.1,0,1.65,0,.84,0,1.68,0,2.51a2.15,2.15,0,0,1,.54.2,1.08,1.08,0,0,1,.51,1,1.1,1.1,0,0,1-.55,1,2.43,2.43,0,0,1-.51.18c0,.27,0,.55,0,.82H45.06c.23,0,.35.19.5.32.73.74,1.48,1.47,2.22,2.21,1,1,2,2.06,3.07,3.09,1.64,1.65,3.3,3.28,4.95,4.93A1.21,1.21,0,0,1,57,39.85a1.16,1.16,0,0,1,1,.73,10.16,10.16,0,0,0,1.2,0l2.22-2.21a8.6,8.6,0,0,1,.65-.62c.62,0,1.23,0,1.85,0a1.11,1.11,0,0,1,.16-.55,1.15,1.15,0,0,1,1.5-.44,1.17,1.17,0,0,1,.63.83c.07,0,.09-.09.15-.13Q67.5,36.24,68.7,35c.11-.07,0-.21,0-.32a1.1,1.1,0,0,1,.1-.7,1.52,1.52,0,0,1,.66-.61c0-1.44,0-2.87,0-4.31a1.14,1.14,0,0,1,0-2.16c0-1.43,0-2.87,0-4.31a1.35,1.35,0,0,1-.73-.78A1.13,1.13,0,0,1,69,20.76a1.94,1.94,0,0,1,.49-.36c0-.74,0-1.49,0-2.23a.15.15,0,0,0,0-.11c-.72-.7-1.42-1.42-2.14-2.12a1.72,1.72,0,0,1-.56.22,1.17,1.17,0,0,1-1.27-.9,1.15,1.15,0,0,1,.2-.95c-.58-.62-1.19-1.21-1.79-1.81-1-1-2-2.05-3.08-3.05a1.32,1.32,0,0,1-1,.19,1.18,1.18,0,0,1-.9-1,1.24,1.24,0,0,1,.22-.8c-1.11-1.15-2.24-2.27-3.38-3.39H48c-.16,0-.24.13-.35.22M59.94,7.69A.38.38,0,0,0,59.7,8a.48.48,0,0,0,.45.65.49.49,0,0,0,.34-.79c-.12-.19-.36-.16-.55-.13m6.51,6.5a.62.62,0,0,0-.23.22.44.44,0,0,0,.23.64.45.45,0,0,0,.64-.33A.48.48,0,0,0,67,14.3a.52.52,0,0,0-.52-.11m-32.52,6.5a.46.46,0,0,0-.25.49c0,.42.59.53.8.24.12-.1.09-.27.09-.41s-.14-.24-.24-.31a1.17,1.17,0,0,0-.4,0m35.74,0a.5.5,0,0,0-.24.54.49.49,0,0,0,.79.23c.15-.14.1-.36.1-.55a.78.78,0,0,0-.23-.22,1.2,1.2,0,0,0-.41,0M34,27.15a.62.62,0,0,0-.27.17c-.13.13-.1.34-.07.5a.56.56,0,0,0,.43.28.5.5,0,0,0,.44-.33c0-.17,0-.37-.1-.49a.48.48,0,0,0-.42-.14m35.74,0a.48.48,0,0,0-.37.47.46.46,0,0,0,.65.43.48.48,0,0,0,.28-.39.49.49,0,0,0-.57-.52m-.12,6.56a.49.49,0,0,0,0,.85,1.26,1.26,0,0,0,.4,0,.78.78,0,0,0,.23-.22c0-.17.05-.37-.07-.52a.54.54,0,0,0-.56-.11m-4.84,3.23a.45.45,0,0,0-.26.23.48.48,0,0,0,.45.68.47.47,0,0,0,.38-.69.48.48,0,0,0-.58-.22M56.66,40.2a.47.47,0,1,0,.62.68.92.92,0,0,0,0-.5C57.17,40.15,56.88,40.17,56.66,40.2Z"/><path d="M47.49,6.28c.17-.15.3-.41.57-.36,2.59,0,5.18,0,7.77,0,.47.41.89.88,1.34,1.32,1.14,1.14,2.3,2.26,3.43,3.42q2.69,2.72,5.42,5.4c.5.5,1,1,1.49,1.5.07.07.16.15.14.27,0,5.33,0,10.67,0,16-.23.29-.52.52-.77.79s-.55.57-.85.84c-1.33,0-2.67,0-4,0-1,.95-1.9,1.91-2.86,2.85-1.08,0-2.17,0-3.25,0a1.37,1.37,0,0,1-1,.12,1.15,1.15,0,0,1-.81-.88,1.21,1.21,0,0,1,.13-.83L51.48,34c-.71-.69-1.4-1.41-2.12-2.09a3.48,3.48,0,0,1-.56.14,1.15,1.15,0,0,1-1.15-.79,1.36,1.36,0,0,1,.1-1c-.83-.86-1.67-1.71-2.53-2.53H45a1.23,1.23,0,0,1-.52.83,1.19,1.19,0,0,1-1.24,0,1.22,1.22,0,0,1-.55-.85c-.31,0-.62,0-.93,0a1.44,1.44,0,0,1-.38.71,1.36,1.36,0,0,1-.72.33,1.22,1.22,0,0,1-1.22-1h-.94a1.2,1.2,0,0,1-.79,1,1.14,1.14,0,0,1-1.22-.32,1.47,1.47,0,0,1-.3-.62L36,27.72q0-4.85,0-9.71c0-.14,0-.31.1-.4L47.49,6.28m.31.37q-5.51,5.53-11,11a2.43,2.43,0,0,0,0,.55c0,.67,0,1.34,0,2,.05,1,0,2.07,0,3.11s0,2.18,0,3.28a1.3,1.3,0,0,1,.83-.15,1.19,1.19,0,0,1,.82.57c.36,0,.73,0,1.1,0,.16,0,.21-.15.31-.23a1.24,1.24,0,0,1,.78-.38,1.29,1.29,0,0,1,1.07.61c.4,0,.8,0,1.2,0a1.31,1.31,0,0,1,.68-.54,1.12,1.12,0,0,1,1,.16c.15.09.23.26.36.38s.33,0,.43.1c.91.91,1.82,1.83,2.73,2.73.1,0,.19-.09.29-.12a1.16,1.16,0,0,1,1.51.86,1.17,1.17,0,0,1-.17.88c1.24,1.26,2.5,2.51,3.75,3.76.39.37.75.77,1.15,1.12a1.18,1.18,0,0,1,.64-.18,1.15,1.15,0,0,1,1.11,1.44c.93,0,1.85,0,2.78,0,1-.95,1.9-1.91,2.86-2.85.34,0,.68,0,1,0h3c.32-.31.64-.62.95-1,0-.32,0-.66,0-1Q67,25.44,67,18c0-.12,0-.26-.07-.35l-2-2q-2.79-2.82-5.62-5.61C58.12,8.9,57,7.73,55.81,6.58H48a.22.22,0,0,0-.2.07M37.32,27.15c-.21.06-.44.23-.41.48a.43.43,0,0,0,.29.43c.16,0,.37,0,.49-.09a.46.46,0,0,0,0-.71.47.47,0,0,0-.34-.11m3.23,0a.48.48,0,0,0-.35.68.51.51,0,0,0,.43.28.49.49,0,0,0,.45-.49.47.47,0,0,0-.53-.48m3.27,0a.53.53,0,0,0-.29.16.48.48,0,0,0,.16.76.47.47,0,0,0,.64-.29.49.49,0,0,0-.51-.63m4.78,3.28a.49.49,0,0,0-.25.71.49.49,0,0,0,.81,0,.59.59,0,0,0-.07-.55.46.46,0,0,0-.49-.13m6.5,6.5a.51.51,0,0,0-.27.24.47.47,0,0,0,.47.68.48.48,0,0,0,.21-.86A.53.53,0,0,0,55.1,36.92Z"/><path d="M47.75,8.56a.22.22,0,0,1,.19-.09h7.77c.16,0,.25.12.35.21l1.5,1.49a1.77,1.77,0,0,0,.27.24,1.25,1.25,0,0,1,1-.16,1.17,1.17,0,0,1,.83,1.42c0,.14-.13.26-.16.4q2.4,2.44,4.84,4.84c.21,0,.39-.19.61-.19a1.14,1.14,0,0,1,1.15.73,1.17,1.17,0,0,1-.22,1.2,1.27,1.27,0,0,1-.74.37c0,1.4,0,2.8,0,4.2a1.19,1.19,0,0,1,.7.34,1.13,1.13,0,0,1,.24,1.27,1.18,1.18,0,0,1-.94.7q0,2.09,0,4.19a1.16,1.16,0,0,1,0,2.31c0,.3,0,.6,0,.9-1,0-2.07,0-3.1,0-.25.18-.44.44-.67.65l-1.67,1.67a5.22,5.22,0,0,1-.56.53H57c-.36,0-.73,0-1.1,0a.28.28,0,0,1-.2-.1L50.3,30.27c-1.38-1.37-2.74-2.75-4.11-4.12-.32-.31-.62-.64-1-.94-.32,0-.65,0-1,0-1.36,0-2.72,0-4.09,0-.17,0-.35,0-.49.08a1.13,1.13,0,0,1-1.13.14A1.16,1.16,0,0,1,38,23.83c.11-.27.39-.4.6-.58,0-1.44,0-2.87,0-4.31a1.2,1.2,0,0,1-.7-.83,1.16,1.16,0,0,1,1.27-1.38c.14,0,.29.17.4,0,1.63-1.62,3.26-3.24,4.87-4.87,0-.27-.12-.55,0-.82a1.17,1.17,0,0,1,.82-.81,1.13,1.13,0,0,1,.76.06c.6-.58,1.19-1.18,1.78-1.77m.09.61c-.5.46-1,1-1.44,1.44,0,.13.13.24.18.37a1.2,1.2,0,0,1,.06.59,1.14,1.14,0,0,1-1.18,1,1.45,1.45,0,0,1-.73-.25q-2.44,2.4-4.84,4.84a1.61,1.61,0,0,1,.25.67A1.14,1.14,0,0,1,39.38,19a.12.12,0,0,0-.1.15c0,1.37,0,2.74,0,4.12.14.11.34.14.46.28a1.15,1.15,0,0,1,.4,1c1.69,0,3.39,0,5.08,0,.88.85,1.73,1.73,2.6,2.59,2.27,2.25,4.52,4.53,6.79,6.79.41.41.81.84,1.24,1.23,1.09,0,2.19,0,3.28,0,.93-.91,1.84-1.84,2.76-2.76.05-.05.11-.12.2-.11h2.29a2.47,2.47,0,0,0,0-.41,1.42,1.42,0,0,1-.43-.5,1.15,1.15,0,0,1,.25-1.28,1.1,1.1,0,0,0,.19-.21,1.72,1.72,0,0,0,0-.33q0-1.73,0-3.45a4.87,4.87,0,0,0,0-.68c-.12-.18-.34-.3-.42-.52a1.12,1.12,0,0,1,.23-1.31c.09-.09.23-.16.21-.31q0-2.13,0-4.26c0-.15-.13-.21-.22-.3A1.15,1.15,0,0,1,64,17.41c.07-.11-.06-.19-.12-.26q-2.36-2.36-4.72-4.72c0-.07-.12,0-.18,0a1.15,1.15,0,0,1-1.58-1.22c0-.15.1-.28.11-.43L55.86,9.17c-2.67,0-5.34,0-8,0m-2.46,1.74a.48.48,0,0,0-.35.43.46.46,0,0,0,.54.49.47.47,0,0,0,.28-.77.48.48,0,0,0-.48-.15m13,0a.48.48,0,0,0-.29.69.47.47,0,0,0,.83,0,.48.48,0,0,0-.54-.65M38.88,17.42a.47.47,0,0,0-.29.69.47.47,0,0,0,.72.13.52.52,0,0,0,.14-.54.49.49,0,0,0-.57-.28m26,0a.49.49,0,0,0-.25.77.48.48,0,0,0,.83-.24.47.47,0,0,0-.58-.53m-26,6.5a.49.49,0,0,0-.41.43.47.47,0,1,0,.88-.21.46.46,0,0,0-.47-.22m26,0a.47.47,0,1,0,.56.61.47.47,0,0,0-.56-.61m0,6.49a.48.48,0,0,0-.31.67.52.52,0,0,0,.41.26.46.46,0,0,0,.49-.49A.47.47,0,0,0,64.89,30.42Z"/><path d="M48.39,10.28a1.18,1.18,0,0,1,1.09.21,1.79,1.79,0,0,1,.39.53h1a1.22,1.22,0,0,1,.78-.74,1.18,1.18,0,0,1,1.43.74c.34,0,.68,0,1,0a2.43,2.43,0,0,1,.32-.48,1.19,1.19,0,0,1,1-.3,1.14,1.14,0,0,1,.79.61,1.91,1.91,0,0,1,.17.75l6.07,6.08,0,.1q0,5.1,0,10.19c0,.81,0,1.61,0,2.42a2.84,2.84,0,0,0-.57,0c-.93.91-1.84,1.84-2.76,2.76a.23.23,0,0,1-.2.07h-3a.22.22,0,0,1-.2-.07l-4.65-4.65a1.1,1.1,0,0,1-1.07.19,1.14,1.14,0,0,1-.71-1.56c0-.11.18-.24.06-.34q-2.06-2.09-4.15-4.15c-1.36,0-2.71,0-4.07,0,0-1.57,0-3.14,0-4.7,0-.1,0-.22,0-.3,1.45-1.45,2.91-2.89,4.34-4.35l2-2c.12-.12.11-.3.19-.44a1.2,1.2,0,0,1,.69-.6m.26.63a.83.83,0,0,0-.26.14.66.66,0,0,0-.09.51.48.48,0,0,0,.86,0,.57.57,0,0,0-.06-.51.46.46,0,0,0-.46-.18m3.22,0a.49.49,0,0,0-.29.69.48.48,0,0,0,.84,0,.49.49,0,0,0-.55-.66m3.22,0a.47.47,0,0,0-.23.74.48.48,0,0,0,.81-.11.48.48,0,0,0-.58-.64m-5.24.79a1.78,1.78,0,0,1-.32.49,1.14,1.14,0,0,1-.86.32,1.19,1.19,0,0,1-1-.66c-2,2-3.92,3.89-5.87,5.85v.08c0,1.39,0,2.79,0,4.18,1.14,0,2.28,0,3.42,0,1.21,1.19,2.4,2.4,3.61,3.6.34.33.66.69,1,1,.24,0,.48-.18.72-.09a1.18,1.18,0,0,1,1,1,1.37,1.37,0,0,1-.11.64c1.4,1.43,2.83,2.83,4.24,4.25.08.08.16.18.29.16,1.05,0,2.1,0,3.16,0a2.59,2.59,0,0,0,.45-.41c.77-.79,1.57-1.54,2.32-2.34,0-4,0-8,0-12,0-.16-.13-.25-.22-.35L56.19,12a1.18,1.18,0,0,1-1,.47,1.21,1.21,0,0,1-1.06-.82h-1c-.14.2-.22.46-.44.59a1.16,1.16,0,0,1-1.16.13,1.26,1.26,0,0,1-.63-.71c-.34,0-.68,0-1,0m.41,15.45a.49.49,0,0,0,.08,1,.5.5,0,0,0,.47-.36A.48.48,0,0,0,50.28,27.15Z"/><path d="M46.92,13.48a1.3,1.3,0,0,1,.8.14,1.33,1.33,0,0,1,.33-.06c2.59,0,5.18,0,7.77,0l.24.23A1.15,1.15,0,0,1,58,14.92a1.89,1.89,0,0,1-.28.53c.49.45.93.94,1.41,1.4.28.3.59.57.87.88,0,1.45,0,2.91,0,4.37q0,3.77,0,7.54c0,.08,0,.19-.06.25l-.72.72a.25.25,0,0,1-.22.08H56c-.21,0-.32-.19-.46-.31Q50.4,25.26,45.27,20.12c-.52,0-1,0-1.57,0q0-1.1,0-2.21c0-.08,0-.17.05-.23.8-.8,1.61-1.6,2.4-2.41a1.26,1.26,0,0,1-.14-.9,1.21,1.21,0,0,1,.92-.88m0,.72a.6.6,0,0,0-.28.34.48.48,0,0,0,.65.53.47.47,0,0,0,.1-.82.53.53,0,0,0-.46,0m9.78,0a.47.47,0,0,0-.15.78c.1.12.27.08.41.09a.33.33,0,0,0,.34-.33c0-.14,0-.31-.07-.43a.53.53,0,0,0-.52-.12m-8.47.06a3.78,3.78,0,0,1,0,.52,1.19,1.19,0,0,1-1.07,1,1.35,1.35,0,0,1-.7-.18,1.15,1.15,0,0,0-.18.16c-.64.64-1.3,1.28-1.93,1.93,0,.58,0,1.17,0,1.75.28,0,.57,0,.85,0,1.1,1.07,2.17,2.17,3.26,3.25l7.17,7.17c.07.06.13.16.23.16H59a.3.3,0,0,0,.31-.32c0-4,0-8,0-12-.65-.67-1.31-1.34-2-2-.15,0-.3.06-.45.07a1.16,1.16,0,0,1-1.07-1.55Z"/><path d="M47.71,16.23c.17-.21.46-.09.69-.11h7.37c.09,0,.14.08.2.13.46.48.94.94,1.4,1.41.07.06,0,.15.05.23,0,.74,0,1.48,0,2.22A1.25,1.25,0,0,1,58,21.24a1.31,1.31,0,0,1-.57.89c0,1.08-.05,2.17,0,3.25,0,.41,0,.83,0,1.24a1.43,1.43,0,0,1,.48.56,1.15,1.15,0,0,1-1.61,1.44c-.28-.13-.42-.42-.64-.63l-9-9a3.84,3.84,0,0,1-.41-.43c0-.27,0-.54,0-.81.46-.52,1-1,1.47-1.5m.06.63c-.27.28-.56.55-.83.83a3.44,3.44,0,0,0,0,.72.25.25,0,0,0,.11.23l7.65,7.65c.36.34.69.72,1.08,1a1.19,1.19,0,0,1,1-.86.57.57,0,0,0,0-.3c0-1.27,0-2.53,0-3.8,0-.12-.13-.12-.2-.16a1.16,1.16,0,0,1-.31-2.07,2,2,0,0,1,.51-.2c0-.74,0-1.48,0-2.23l-.95-.94c-2.57,0-5.14,0-7.7,0-.12,0-.26,0-.35.08m8.89,3.83a.48.48,0,0,0-.09.78.55.55,0,0,0,.5.07c.3-.1.33-.51.16-.74s-.38-.14-.57-.11m.12,6.46a.53.53,0,0,0-.34.27,1,1,0,0,0,0,.36.51.51,0,0,0,.48.33.49.49,0,0,0,.43-.43A.48.48,0,0,0,56.78,27.15Z"/><path d="M100.14,24.08a1.14,1.14,0,0,1,2.15-.18c0,.06.05.18.15.17.47,0,.93,0,1.4,0a.35.35,0,0,1,.24.1L111,31.11v.69c-2.29-2.27-4.55-4.56-6.83-6.84-.09-.08-.17-.22-.31-.2-.51,0-1,0-1.52,0a1.3,1.3,0,0,1-.79.72,1.22,1.22,0,0,1-1.08-.25,37.47,37.47,0,0,1-3.62,3.34l-1,2.09a.71.71,0,0,1,0,.12A1.16,1.16,0,0,1,94.65,32a1.35,1.35,0,0,1-.69-.29c-.71.71-1.44,1.39-2.12,2.12,0,.7,0,1.41,0,2.11,0,.13,0,.29.07.38l9.21,9.21c.28.27.55.56.84.82a1.25,1.25,0,0,1,1.23-.37,1.15,1.15,0,0,1,.82.93c.89-.88,1.78-1.75,2.65-2.65a1.48,1.48,0,0,1,0-.76,1.2,1.2,0,0,1,.79-.77,1.53,1.53,0,0,1,.72,0c1-.92,1.89-1.88,2.84-2.82v.69c-.8.8-1.61,1.6-2.4,2.41a1.47,1.47,0,0,1,.3.79A1.17,1.17,0,0,1,107.78,45a1.38,1.38,0,0,1-.82-.3,6.91,6.91,0,0,0-.58.55c-.76.75-1.51,1.52-2.27,2.27-.32.22-.54.59-.94.68a1.16,1.16,0,0,1-1.32-.59,1.91,1.91,0,0,1-.15-.78,2,2,0,0,0-.35-.39L91.2,36.32a.16.16,0,0,1,0-.11c0-.75,0-1.5,0-2.25a.26.26,0,0,1,.11-.22c.8-.8,1.6-1.59,2.39-2.4,0-.16-.05-.32-.06-.49a1.17,1.17,0,0,1,.95-1.11,2.06,2.06,0,0,1,.67,0q2.49-2.46,5-4.95a2,2,0,0,1,0-.75m.49-.16a.47.47,0,1,0,.58.53.47.47,0,0,0-.58-.53m-6.5,6.5a.47.47,0,1,0,.58.53.47.47,0,0,0-.58-.53m13,13a.47.47,0,1,0,.59.43.47.47,0,0,0-.59-.43m-4.83,3.23a.47.47,0,0,0-.37.31.46.46,0,0,0,.46.62c.4.06.6-.52.33-.77A.43.43,0,0,0,102.3,46.65Z"/><path d="M100.83,26.72c.11-.13.29-.08.45-.09.9,0,1.8,0,2.69,0,.27.21.49.48.74.72.56.57,1.14,1.13,1.7,1.7.27.26.52.54.81.78a1.63,1.63,0,0,1,.62-.12,1.17,1.17,0,0,1,1.07,1.07,1.64,1.64,0,0,1-.12.62c.71.78,1.49,1.49,2.21,2.26v.66c-.85-.84-1.69-1.69-2.55-2.53a1.4,1.4,0,0,1-.68.23,1.17,1.17,0,0,1-1.18-1.18,1.38,1.38,0,0,1,.23-.68c-.92-.93-1.85-1.86-2.77-2.79-.1-.13-.27-.08-.41-.09-.89,0-1.79,0-2.68,0-.3.23-.54.53-.82.79q-2.22,2.21-4.42,4.44c-.43.45-.9.87-1.32,1.32,0,.68,0,1.37,0,2.05,0,.16,0,.36.1.47,2.71,2.68,5.38,5.4,8.09,8.08.46,0,.92,0,1.38,0,.71-.67,1.38-1.38,2.08-2.07l5-5v.68c-1.62,1.6-3.22,3.22-4.82,4.83-.67.67-1.35,1.33-2,2-.09.07-.17.2-.3.18h-1c-.12,0-.26,0-.34-.08l-8.72-8.73c-.09-.08-.05-.21-.06-.31,0-.69,0-1.38,0-2.08,0-.2.22-.31.33-.45.73-.73,1.45-1.47,2.18-2.19,1.55-1.52,3.07-3.07,4.61-4.6m6.3,3.7a.49.49,0,0,0-.34.53.45.45,0,0,0,.43.39.47.47,0,1,0-.1-.92Z"/><path d="M100.45,29.2c1,0,2,0,3,0a5.52,5.52,0,0,1,.56.53q2.87,2.86,5.73,5.74a4.91,4.91,0,0,1,0,.63c0,.08,0,.19,0,.26l-6.07,6.07c-.08.08-.16.19-.29.16-.44,0-.87,0-1.31,0-.25-.19-.45-.44-.67-.65L98,38.5c-.06-.07-.16,0-.24,0a1.16,1.16,0,0,1-1.35-.9,1.52,1.52,0,0,1,0-.64,6.37,6.37,0,0,0-.48-.5c-.07-.08-.17-.14-.16-.26,0-.31,0-.62,0-.93a1.17,1.17,0,0,1-1-1.46A1.19,1.19,0,0,1,95.88,33a1.93,1.93,0,0,1,.61.17l2.68-2.67c.43-.41.83-.86,1.28-1.26m0,.64c-.36.3-.67.67-1,1l-2.61,2.62a1.3,1.3,0,0,1,.18.87,1.25,1.25,0,0,1-.58.83c0,.33,0,.67,0,1s.16.28.27.39a1.73,1.73,0,0,1,.44-.25,1.17,1.17,0,0,1,1.28.38A1.11,1.11,0,0,1,98.47,38c0,.09-.18.2-.06.29,1.21,1.22,2.43,2.44,3.65,3.66h1.39c1.89-1.87,3.76-3.76,5.64-5.64a3.54,3.54,0,0,0,0-.81l-1.18-1.18c-1.5-1.47-3-3-4.46-4.46h-3M95.67,33.7c-.27.09-.26.4-.23.63s.17.24.32.24.31,0,.41-.09a.48.48,0,0,0,0-.71.56.56,0,0,0-.51-.07m1.67,3.22a.5.5,0,0,0-.17.8.48.48,0,0,0,.76-.16.48.48,0,0,0-.14-.57A.52.52,0,0,0,97.35,36.92Z"/><path d="M0,31.11l4.33,4.33a1.87,1.87,0,0,1,.05.7c0,.19-.17.29-.27.42a3,3,0,0,0,.17.31,1.09,1.09,0,0,1,.07.85,1.16,1.16,0,0,1-1.13.8,1.36,1.36,0,0,1-.76-.29l-.14.11L0,40.66V40c.72-.72,1.45-1.44,2.15-2.17a1.81,1.81,0,0,1,0-.68A1.2,1.2,0,0,1,3,36.25a1.52,1.52,0,0,1,.67,0,2.08,2.08,0,0,0,0-.85C2.43,34.22,1.21,33,0,31.8V31m3.08,5.93a.48.48,0,0,0,0,.87.47.47,0,0,0,.66-.49A.48.48,0,0,0,3.08,36.93Z"/><path d="M100.33,31.84a.25.25,0,0,1,.22-.11c1,0,1.94,0,2.91,0,.51.46,1,1,1.48,1.45a1.22,1.22,0,0,1,1-.17,1.16,1.16,0,0,1,.83,1.17,2.05,2.05,0,0,1-.2.63c.19.25.47.44.65.7,0,.25,0,.49,0,.74a6.49,6.49,0,0,1-.59.63l-2.82,2.82a3.2,3.2,0,0,1-.36.33c-.47,0-.93,0-1.4,0-1.07-1-2.11-2.11-3.18-3.15a6.58,6.58,0,0,1-.6-.63c0-.73,0-1.46,0-2.19,0-.24.2-.38.34-.53l1.7-1.7m-.06.74-1.21,1.21c-.13.11-.07.3-.08.45q0,1,0,2.06a3.11,3.11,0,0,0,.39.41l2.53,2.54s.1.11.17.1h1.15c.11,0,.24,0,.32-.07,1-1,2-2,3-3a5.25,5.25,0,0,0,0-.8,1.2,1.2,0,0,0-.35-.37,1.41,1.41,0,0,1-.87.11,1.2,1.2,0,0,1-.85-1.06,1.38,1.38,0,0,1,.14-.63c-.31-.34-.64-.65-1-1-.07-.06-.13-.16-.23-.15h-2.88c-.13,0-.2.09-.28.17m5.15,1.13a.47.47,0,0,0-.09.77.64.64,0,0,0,.5.08.49.49,0,0,0,.21-.68A.51.51,0,0,0,105.41,33.71Z"/><path d="M0,33.65l1.18,1.19c.21.21.44.4.63.63a3.4,3.4,0,0,1,0,.81,4.62,4.62,0,0,1-.43.44L0,38.12v-.68l1.07-1.08c.1-.08.07-.21.08-.32a2.9,2.9,0,0,0,0-.55C.77,35.08.37,34.72,0,34.34Z"/><path d="M100.86,34.32l0,0c.86,0,1.72,0,2.58,0,.3.25.55.54.83.8a3.35,3.35,0,0,1,.36.38c0,.27,0,.55,0,.82-.31.36-.67.67-1,1-.09.08-.17.21-.31.19h-1.3c-.36-.33-.69-.69-1-1-.07-.08-.18-.15-.17-.27,0-.63,0-1.25,0-1.88m.68.63c0,.44,0,.89,0,1.34a6.59,6.59,0,0,0,.52.52h1.4a3.94,3.94,0,0,0,.55-.56c0-.17,0-.34,0-.51s0-.25-.09-.33a5.74,5.74,0,0,0-.47-.45C102.82,34.95,102.18,35,101.54,35Z"/><path d="M31,34.87a6.79,6.79,0,0,1,.52-.51c2.59,0,5.18,0,7.76,0h6c1.1,1.07,2.17,2.17,3.26,3.25q3.58,3.58,7.17,7.17c.07.06.13.16.23.15.41,0,.81,0,1.22,0,0,.35,0,.7,0,1.06a1.16,1.16,0,0,1,.8.66A1.13,1.13,0,0,1,57.64,48a1.43,1.43,0,0,1-.52.29c0,1.39,0,2.77,0,4.16,0,.13.18.12.27.18A1.14,1.14,0,0,1,57.95,54a1.21,1.21,0,0,1-.83.73c0,.95,0,1.9,0,2.84a3.2,3.2,0,0,1-.45.49l-5,5c-.25.24-.47.49-.73.71-.36,0-.74,0-1.1,0a.88.88,0,0,0-.15.21,1.18,1.18,0,0,1-.89.51,1.25,1.25,0,0,1-1.13-.72H46.59a2.66,2.66,0,0,1-.29.4,1.28,1.28,0,0,1-.78.33,1.17,1.17,0,0,1-1.09-.72,1.31,1.31,0,0,1,0-.83c-1.38-1.4-2.77-2.79-4.16-4.18-1.27,0-2.54,0-3.82,0H31.54a4.25,4.25,0,0,1-.55-.52l-.57-.58c-.07-.06-.05-.17-.06-.25,0-.91,0-1.83,0-2.74a2.18,2.18,0,0,0-.27-.24,1.14,1.14,0,0,1-.2-1.43,1.59,1.59,0,0,1,.46-.44c0-1.47,0-2.95,0-4.42a1.28,1.28,0,0,1-.62-.92,1.19,1.19,0,0,1,.62-1.16c0-1.47,0-2.95,0-4.42-.1-.1-.23-.17-.33-.27a1.16,1.16,0,0,1-.21-1.23,1.56,1.56,0,0,1,.53-.59c0-1.37,0-2.74,0-4.11.18-.22.4-.4.59-.6m.08.6c0,1.33,0,2.66,0,4a1.52,1.52,0,0,1,.64.34,1.15,1.15,0,0,1,.15,1.46,1.2,1.2,0,0,1-.72.5c-.1,0-.06.13-.07.19,0,1.32,0,2.64,0,4,0,.09.09.09.15.11A1.15,1.15,0,0,1,32,47.25a1.18,1.18,0,0,1-1,1c0,1.4,0,2.81,0,4.21a1.59,1.59,0,0,1,.57.28,1.15,1.15,0,0,1,.25,1.45,1.23,1.23,0,0,1-.81.57A.78.78,0,0,0,31,55c0,.86,0,1.73,0,2.59,0,.12.12.18.19.26s.2.27.37.25h8.52c.15,0,.24.11.33.19l4.23,4.23a1.74,1.74,0,0,1,.55-.28,1.12,1.12,0,0,1,1,.2,1.29,1.29,0,0,1,.44.66c.33,0,.66,0,1,0a1.17,1.17,0,0,1,1.2-.88,1.16,1.16,0,0,1,1.06.89,8.91,8.91,0,0,0,1.05,0c.31-.28.6-.59.9-.88l4.52-4.52c.11-.08.08-.23.08-.34,0-.86,0-1.73,0-2.59,0-.13-.15-.17-.23-.24a1.15,1.15,0,0,1-.11-1.75,4,4,0,0,0,.34-.26c0-1.4,0-2.8,0-4.2,0-.17-.16-.24-.27-.32a1.15,1.15,0,0,1,0-1.75c.09-.1.27-.14.3-.28a1.32,1.32,0,0,0,0-.34c-.22,0-.49.1-.67-.09-1.42-1.43-2.87-2.85-4.29-4.29L45.3,35.11C45.22,35,45.11,35,45,35H31.54c-.2.07-.34.29-.5.44m-.23,4.67a.47.47,0,1,0,.49.66.48.48,0,0,0-.49-.66m-.05,6.51a.49.49,0,0,0-.32.66.47.47,0,1,0,.32-.66m26.07,0a.45.45,0,0,0-.41.49c0,.27.23.43.45.47a.5.5,0,0,0,.46-.53.48.48,0,0,0-.51-.43M30.64,53.22a.48.48,0,0,0-.06.79.62.62,0,0,0,.42.07.48.48,0,0,0,.27-.7.5.5,0,0,0-.63-.16m26,0a.47.47,0,0,0-.06.8.62.62,0,0,0,.46.06.5.5,0,0,0,.25-.6.46.46,0,0,0-.65-.25M45.48,62.89a.49.49,0,0,0-.45.47.47.47,0,0,0,.65.45.48.48,0,0,0,.25-.63.54.54,0,0,0-.45-.28m3.28,0a.55.55,0,0,0-.37.17c-.12.12-.09.31-.08.46s.25.3.44.34a.5.5,0,0,0,.44-.33.89.89,0,0,0,0-.37A.53.53,0,0,0,48.76,62.89Z"/><path d="M71.5,36.7a8.55,8.55,0,0,1,.72-.69A33.22,33.22,0,0,0,78,35.74l6.18.17a21.49,21.49,0,0,0,2.5.12,2.15,2.15,0,0,0,0,.39,2.38,2.38,0,0,0,.31.33l13,13,.09.23q0,19.24,0,38.47a7.85,7.85,0,0,1,0,1c-.49.51-1,1-1.49,1.51-.15.14-.07.37-.09.55q0,9.72,0,19.44h-.68q0-9.69,0-19.38a2,2,0,0,1,0-.5c.34-.37.72-.71,1.06-1.07.17-.21.45-.37.54-.63q0-19.52,0-39c0-.2.06-.45-.12-.6q-6.45-6.45-12.9-12.9c-.09-.08-.17-.21-.31-.19H72.86a6.2,6.2,0,0,0-.66,0c-.26.2-.47.46-.7.68L68.8,40.07c-.06.07-.14.14-.12.24,0,.77,0,1.54,0,2.32,0,.15,0,.35.16.43a1.17,1.17,0,0,1,.55,1,1.18,1.18,0,0,1-.56,1c-.17.08-.14.29-.15.44q0,1.89,0,3.78l.16.34a1.35,1.35,0,0,1,.42.46A1.16,1.16,0,0,1,69,51.43c-.09.07-.18.13-.27.21a1.58,1.58,0,0,0-.05.54c0,1.24,0,2.47,0,3.71,0,.18.17.25.28.36a1.12,1.12,0,0,1,.33,1.28,1.44,1.44,0,0,1-.58.64,3.57,3.57,0,0,0,0,.78q0,1.62,0,3.24a1,1,0,0,0,.06.41,1.28,1.28,0,0,1,.57.65,1.15,1.15,0,0,1-.49,1.38c-.15.07-.13.25-.14.39,0,1.06,0,2.12,0,3.18a4.94,4.94,0,0,0,0,.9,1.36,1.36,0,0,1,.64.82,1.21,1.21,0,0,1-.64,1.32,3.17,3.17,0,0,0,0,.72q0,1.36,0,2.72a5.5,5.5,0,0,0,0,1,1.39,1.39,0,0,1,.62.77,1.18,1.18,0,0,1-1.11,1.48,1.49,1.49,0,0,1-.74-.26c-1.63,1.6-3.23,3.22-4.85,4.84-.23.22-.44.46-.68.66-.45,0-.91,0-1.37,0-2.51,0-5,0-7.54,0a1.18,1.18,0,0,1-.57,1.08,1,1,0,0,1-.83.14,1.86,1.86,0,0,0-.41-.11c-.75.71-1.47,1.46-2.21,2.18a1.64,1.64,0,0,0-.22.24c0,.34,0,.68,0,1a9,9,0,0,0,0,.93,1.24,1.24,0,0,1,.94,1,1.36,1.36,0,0,1-.12.73c.24.27.53.5.76.78a7.5,7.5,0,0,1,0,.76,1.47,1.47,0,0,1,.72.44,1.14,1.14,0,0,1,0,1.44,1.62,1.62,0,0,1-.72.45q0,2.1,0,4.21a1.25,1.25,0,0,1,1,1,1.18,1.18,0,0,1-1,1.33c0,.52,0,1,0,1.56,0,.89,0,1.78,0,2.68a1.33,1.33,0,0,1,.77.51,1.14,1.14,0,0,1-.06,1.37,1.48,1.48,0,0,1-.72.44q0,1.18,0,2.37h5.13a.33.33,0,0,1,.29.09c.42.43.85.84,1.26,1.27h-.67c-.24-.21-.44-.46-.69-.66-.35,0-.71,0-1.07,0-1.64,0-3.27,0-4.91,0,0-1,0-2.1,0-3.14a1.3,1.3,0,0,1-.62-.78,1.16,1.16,0,0,1,.54-1.27c.11-.05.08-.19.09-.29,0-1,0-1.93,0-2.9,0-.43,0-.87,0-1.29a1.74,1.74,0,0,1-.51-.54,1.13,1.13,0,0,1,.35-1.45c.09-.07.21-.12.19-.25,0-1.44,0-2.87,0-4.31a1.44,1.44,0,0,1-.57-.6,1.13,1.13,0,0,1,.36-1.34c.07-.08.21-.11.21-.23a4.17,4.17,0,0,0,0-.77,2.94,2.94,0,0,0-.42-.42,1.35,1.35,0,0,1-1.09.14,1.14,1.14,0,0,1-.75-1.09,1,1,0,0,1,.42-.9c.08-.08.21-.13.21-.26,0-.65,0-1.3,0-1.94a5.55,5.55,0,0,1,.48-.5c.76-.77,1.54-1.52,2.29-2.32a1.39,1.39,0,0,1-.16-.8,1.19,1.19,0,0,1,1.22-1,1.75,1.75,0,0,1,.79.37c.5,0,1,0,1.52,0h7.52a.27.27,0,0,0,.23-.1L66.4,78c.25-.26.53-.51.75-.79a1.35,1.35,0,0,1-.06-.78,1.25,1.25,0,0,1,.87-.87c0-1.41,0-2.82,0-4.23a2.48,2.48,0,0,1-.55-.31,1.16,1.16,0,0,1-.2-1.44A1.31,1.31,0,0,1,68,69c0-.76,0-1.52,0-2.27s0-1.32,0-2a1.29,1.29,0,0,1-.62-.38,1.12,1.12,0,0,1,0-1.45,1.46,1.46,0,0,1,.66-.45q0-2.11,0-4.22c-.12-.12-.31-.14-.45-.25a1.15,1.15,0,0,1-.27-1.56A1.36,1.36,0,0,1,68,56c0-1.41,0-2.82,0-4.22a2.7,2.7,0,0,1-.52-.29,1.16,1.16,0,0,1-.2-1.51,1.38,1.38,0,0,1,.71-.52c0-.89,0-1.79,0-2.68,0-.52,0-1,0-1.56a1.18,1.18,0,0,1-.87-1.42,1.28,1.28,0,0,1,.88-.86c0-.67,0-1.33,0-2a3.53,3.53,0,0,1,0-.67,8.86,8.86,0,0,1,.65-.68L71.5,36.7m-3.39,6.73a.53.53,0,0,0-.28.22,1.17,1.17,0,0,0,0,.41.46.46,0,0,0,.48.29.48.48,0,0,0,.4-.5.45.45,0,0,0-.6-.43m0,6.5a.48.48,0,0,0-.33.52.48.48,0,0,0,.39.39.45.45,0,0,0,.54-.48.46.46,0,0,0-.6-.43m-.05,6.51a.65.65,0,0,0-.23.22c0,.22-.06.51.18.62s.47.08.62-.1a.51.51,0,0,0-.07-.66.58.58,0,0,0-.49-.08m.21,6.46c-.17,0-.38.08-.44.27a.47.47,0,0,0,.26.66.46.46,0,0,0,.62-.45.47.47,0,0,0-.44-.48m-.16,6.54a.54.54,0,0,0-.28.23,1.48,1.48,0,0,0,0,.41.76.76,0,0,0,.23.23c.17,0,.38.06.51-.08a.47.47,0,0,0,0-.73.5.5,0,0,0-.41-.06m-.05,6.51a.79.79,0,0,0-.23.22c0,.17-.05.38.07.52a.54.54,0,0,0,.56.11.48.48,0,0,0,0-.86,1.29,1.29,0,0,0-.36,0M51.94,82.4a.49.49,0,0,0-.39.61.51.51,0,0,0,.43.35.5.5,0,0,0,.49-.49.48.48,0,0,0-.53-.48M48.55,89a.5.5,0,0,0-.23.63.43.43,0,0,0,.43.24c.43.07.61-.56.31-.81a.62.62,0,0,0-.52-.06m1.67,3.22a.48.48,0,0,0-.19.76.47.47,0,0,0,.71,0,.46.46,0,0,0-.05-.65c-.11-.14-.31-.12-.47-.1m0,6.51a.44.44,0,0,0-.3.42.47.47,0,1,0,.3-.42m0,6.5a.47.47,0,1,0,.61.6A.48.48,0,0,0,50.21,105.18Z"/><path d="M41.15,37.69a1.15,1.15,0,0,1,1-1.45,1.19,1.19,0,0,1,1.12.64c.39,0,.77,0,1.16,0a1.15,1.15,0,0,1,1.06-.64,1.12,1.12,0,0,1,.77.29,1.19,1.19,0,0,1,.13,1.55c.36.4.76.77,1.14,1.15L51.29,43a1.22,1.22,0,0,1,.79-.23,1.15,1.15,0,0,1,1.07,1.21,1.31,1.31,0,0,1-.23.64l1.52,1.52c.13.11.1.31.18.45a1.18,1.18,0,0,1,.14.64c0,.33-.28.59-.22.92a6.16,6.16,0,0,1,0,1.15c0,.38,0,.77,0,1.15s.06.77,0,1.15,0,.77,0,1.15a1.93,1.93,0,0,0,.19.6,1.32,1.32,0,0,1-.19,1c0,1.1,0,2.21,0,3.32-1.14,1.16-2.3,2.29-3.43,3.45-.07.05-.13.15-.22.15H45.46c-.1,0-.23,0-.3-.08Q43.61,59.61,42,58.06c-.2-.15-.46-.21-.62-.41a1.11,1.11,0,0,1-.18-1.28,1.57,1.57,0,0,1,.4-.46c0-.07,0-.17,0-.24,0-1.43,0-2.86,0-4.3a1.22,1.22,0,0,1-.5-.67,1.12,1.12,0,0,1,.3-1.13l.2-.2c0-1.5,0-3,0-4.5a1.23,1.23,0,0,1-.5-.67,1.14,1.14,0,0,1,.43-1.24c.11-.06.07-.2.08-.3,0-1.43,0-2.86,0-4.29a1.3,1.3,0,0,1-.49-.67m.95-.77a.48.48,0,0,0,0,.91.47.47,0,0,0,.55-.6.48.48,0,0,0-.6-.31m3.28,0a.61.61,0,0,0-.3.26.47.47,0,0,0,.45.66.49.49,0,0,0,.39-.71.48.48,0,0,0-.53-.21m-2,.67a1.58,1.58,0,0,1-.36.62,1.42,1.42,0,0,1-.71.32c0,1.4,0,2.79,0,4.19a1.15,1.15,0,0,1,1.06,1.13,1.13,1.13,0,0,1-.54,1,2,2,0,0,1-.51.18c0,1.39,0,2.78,0,4.18a1.21,1.21,0,0,1,.85.49A1.15,1.15,0,0,1,43.24,51a1.23,1.23,0,0,1-.91.59q0,2.09,0,4.19a1.16,1.16,0,0,1,1,1.45,1.2,1.2,0,0,1-.72.79c.87.87,1.72,1.76,2.61,2.61,1.85,0,3.71,0,5.56,0,.14,0,.22-.1.31-.18l2.53-2.53c.09-.11.25-.2.22-.37a8.24,8.24,0,0,1,0-1H47.59c-.08,0-.19,0-.25,0a3,3,0,0,1-.41-.43c0-.43,0-.86,0-1.29A1.19,1.19,0,0,1,46,53.52a1.25,1.25,0,0,1,.42-.79,2.28,2.28,0,0,1,.53-.27c0-1.4,0-2.8,0-4.19a1.27,1.27,0,0,1-.69-.41,1.2,1.2,0,0,1-.06-1.38,1.16,1.16,0,0,1,.74-.49c0-1.4,0-2.81,0-4.21a1.22,1.22,0,0,1-.91-.87,1.16,1.16,0,0,1,.1-.83,1.39,1.39,0,0,1,.82-.63c0-.19-.16-.3-.27-.43s-.41-.43-.63-.62a1.22,1.22,0,0,1-1.19-.08,1.29,1.29,0,0,1-.49-.72h-1m3.65,2.56a.5.5,0,0,0-.41.52.5.5,0,0,0,.49.41.47.47,0,0,0,.43-.25.6.6,0,0,0-.11-.57.55.55,0,0,0-.4-.11m-4.9,3.27a.42.42,0,0,0-.36.43.47.47,0,0,0,.67.44c.26-.1.25-.42.21-.65a.49.49,0,0,0-.52-.23m6.39,0a.49.49,0,0,0-.27.53.48.48,0,0,0,.7.34.47.47,0,0,0,.25-.46.48.48,0,0,0-.68-.42m3.28,0a.48.48,0,1,0,.61.25.5.5,0,0,0-.61-.25M47,46.65a.48.48,0,0,0-.29.76.48.48,0,1,0,.29-.76m3.22,0a.5.5,0,0,0-.29.76.48.48,0,0,0,.83-.05.49.49,0,0,0-.54-.71m3.28,0a.49.49,0,0,0-.4.49.48.48,0,0,0,.48.48.64.64,0,0,0,.44-.28.57.57,0,0,0-.11-.57.52.52,0,0,0-.4-.13M42.09,49.93a.47.47,0,1,0,.59.64c0-.17.06-.39-.08-.52a.47.47,0,0,0-.5-.13m6.5,0a.49.49,0,0,0,.07.93.47.47,0,0,0,.57-.49.48.48,0,0,0-.64-.44m3.28,0a.49.49,0,0,0-.14.87.5.5,0,0,0,.75-.26.5.5,0,0,0-.6-.61m-5,3.31a.61.61,0,0,0-.24.37.53.53,0,0,0,.25.46.49.49,0,0,0,.7-.3.48.48,0,0,0-.71-.53m3.27,0a.49.49,0,1,0,.68.26.5.5,0,0,0-.68-.26m3.23,0a.49.49,0,0,0,0,.82.48.48,0,0,0,.73-.29c0-.14,0-.31-.08-.41a.5.5,0,0,0-.62-.13M42.09,56.43a.48.48,0,0,0-.1.84.88.88,0,0,0,.5,0c.23-.11.22-.4.18-.62A.48.48,0,0,0,42.09,56.43Z"/><path d="M7.08,37.44c.13-.16.36-.09.54-.1h10c2.85,0,5.69,0,8.54,0,0,1.73,0,3.47,0,5.2a1.92,1.92,0,0,1,.55.37,1.18,1.18,0,0,1,.11,1.35,1.23,1.23,0,0,1-.47.43l-.19.35c0,1.32,0,2.64,0,4a1.79,1.79,0,0,1,.52.35,1.15,1.15,0,0,1,.12,1.41,1.36,1.36,0,0,1-.63.48c0,.27,0,.55,0,.82,0,1.14,0,2.28,0,3.42a2.11,2.11,0,0,1,.49.31,1.16,1.16,0,0,1-.26,1.81c.68.74,1.42,1.44,2.13,2.16.25.27.55.5.78.79,0,.46,0,.93,0,1.39a1.52,1.52,0,0,1,.58.35,1.13,1.13,0,0,1,.16,1.37,1.24,1.24,0,0,1-.73.55c0,.48,0,1,0,1.44,0,.92,0,1.85,0,2.77a1.28,1.28,0,0,1,.81.7,1.16,1.16,0,0,1-.25,1.25,2.35,2.35,0,0,1-.57.34c0,1.38,0,2.76,0,4.14.15.13.35.16.5.3a1.15,1.15,0,0,1,.26,1.42,1.38,1.38,0,0,1-.78.61c.31.35.65.67,1,1a1.89,1.89,0,0,1,.56,0,1.19,1.19,0,0,1,.91.71,1.31,1.31,0,0,1,0,.84c.93,1,1.9,1.91,2.85,2.87.71.7,1.4,1.41,2.12,2.09a2,2,0,0,1,.57,0,1.16,1.16,0,0,1,.93.76,1.49,1.49,0,0,1,0,.79c.58.6,1.16,1.2,1.77,1.78,1.3,0,2.61,0,3.92,0,0,.24,0,.49,0,.73a1,1,0,0,0,.19.23c.42.41.83.84,1.26,1.26.06.07.16.14.16.24,0,1.31,0,2.62,0,3.92a1.33,1.33,0,0,1,.6.45,1.17,1.17,0,0,1,0,1.27,1.46,1.46,0,0,1-.64.51c0,.81,0,1.63,0,2.44,0,.6,0,1.2,0,1.8a1.58,1.58,0,0,1,.55.38,1.16,1.16,0,0,1,0,1.41,1.49,1.49,0,0,1-.6.44c0,1.42,0,2.83,0,4.25a1.26,1.26,0,0,1,.63.48,1.16,1.16,0,0,1-.2,1.49,3.21,3.21,0,0,1-.41.23,1.69,1.69,0,0,0,0,.52h-.68a3.11,3.11,0,0,0,0-.5c-.11-.12-.28-.17-.4-.29a1.17,1.17,0,0,1-.25-1.3,1.4,1.4,0,0,1,.65-.63c.05-1,0-2.09,0-3.13a8.67,8.67,0,0,0,0-1.16,1.34,1.34,0,0,1-.59-.51,1.18,1.18,0,0,1,.11-1.29,2,2,0,0,1,.5-.37c.05-.83,0-1.67,0-2.5,0-.59,0-1.17,0-1.76-.11-.12-.28-.17-.4-.3a1.14,1.14,0,0,1-.19-1.41,1.43,1.43,0,0,1,.58-.52c.05-.56,0-1.13,0-1.7,0-.76,0-1.52,0-2.28a2.92,2.92,0,0,0-.47-.51c-.4-.41-.83-.79-1.2-1.23-1,0-2.06,0-3.08,0-.09,0-.15-.06-.21-.11-.64-.64-1.27-1.29-1.93-1.91a1.62,1.62,0,0,1-.73.3,1.15,1.15,0,0,1-1.24-1.18,1.48,1.48,0,0,1,.3-.79Q34,82.49,31.56,80.1a1.65,1.65,0,0,1-.73.31,1.15,1.15,0,0,1-1.08-.56,1.11,1.11,0,0,1,0-1.1l.18-.31c-.38-.42-.82-.78-1.18-1.22a2.25,2.25,0,0,0-.44-.43,1.16,1.16,0,0,1-.05-1.48,3.68,3.68,0,0,1,.44-.38q0-2.14,0-4.29a2.13,2.13,0,0,1-.51-.48,1.14,1.14,0,0,1,.23-1.46c.1-.11.31-.17.29-.35,0-1.39,0-2.79,0-4.18a1.89,1.89,0,0,1-.56-.55,1.17,1.17,0,0,1,.2-1.34c.11-.11.26-.17.35-.3,0-.44,0-.87,0-1.31,0-.1-.06-.17-.12-.24-.87-.87-1.73-1.74-2.61-2.6-.2-.13-.47-.11-.67-.25a1.13,1.13,0,0,1,0-1.93c.09-.07.25-.1.22-.24,0-1.3,0-2.6,0-3.9a.85.85,0,0,0,0-.26,2.75,2.75,0,0,1-.44-.32,1.15,1.15,0,0,1-.23-1.18A1.46,1.46,0,0,1,25.5,49c0-1.31,0-2.63,0-3.94a1.1,1.1,0,0,0,0-.32,1.38,1.38,0,0,1-.61-.55,1.14,1.14,0,0,1,.28-1.42c.1-.11.32-.14.35-.29,0-1.2,0-2.4,0-3.61,0-.3,0-.6,0-.89H7.28l-.18.07Q3.55,41.62,0,45.17v-.65Q3.53,41,7.08,37.44m18.79,6a.47.47,0,1,0,.57.63.52.52,0,0,0-.11-.52.48.48,0,0,0-.46-.11m0,6.49a.47.47,0,1,0,.59.59.56.56,0,0,0-.09-.45.5.5,0,0,0-.5-.14m-.05,6.51a.5.5,0,0,0-.25.6.47.47,0,1,0,.71-.54.62.62,0,0,0-.46-.06m3.44,6.46a.67.67,0,0,0-.36.18c-.13.11-.09.3-.09.45a.51.51,0,0,0,.48.33.51.51,0,0,0,.42-.38.49.49,0,0,0-.45-.59m-.16,6.55a.42.42,0,0,0-.29.43.4.4,0,0,0,.44.44.38.38,0,0,0,.45-.28.55.55,0,0,0-.08-.48.52.52,0,0,0-.52-.12M29,75.95a.49.49,0,0,0-.2.65.5.5,0,0,0,.82,0,1,1,0,0,0,0-.51c-.11-.23-.4-.22-.62-.18m1.72,3.22a.55.55,0,0,0-.35.33.5.5,0,0,0,.39.59.48.48,0,0,0,.51-.63.47.47,0,0,0-.55-.3m6.5,6.5a.56.56,0,0,0-.28.18.62.62,0,0,0-.06.46.54.54,0,0,0,.43.29.47.47,0,1,0-.09-.92m8,9.79a.5.5,0,0,0-.17.68.5.5,0,0,0,.65.13.47.47,0,0,0,.1-.72c-.14-.18-.39-.12-.58-.1m.17,6.44a.5.5,0,0,0-.37.67.55.55,0,0,0,.45.29c.23,0,.48-.22.45-.48a.47.47,0,0,0-.53-.49m-.16,6.57a.47.47,0,0,0,0,.81c.11.08.26,0,.38.05a.47.47,0,0,0,.25-.73A.49.49,0,0,0,45.27,108.47Z"/><path d="M71.06,40.08c.4-.38.76-.8,1.18-1.15,1.67,0,3.33,0,5,0H86c.29,0,.43.27.63.43l3.71,3.71c.08.07.15.18.26.22a1.88,1.88,0,0,1,.63,0,1.18,1.18,0,0,1,.94,1.11,3.45,3.45,0,0,1-.08.44c.18.21.39.39.58.59l4.69,4.69a.3.3,0,0,1,.12.26q0,19.57,0,39.14a.31.31,0,0,1-.12.25c-.49.49-1,1-1.46,1.47a2.3,2.3,0,0,0,0,.64q0,9.58,0,19.16h-.66q0-9.64,0-19.28c0-.21-.08-.48.12-.64l1-1a5.31,5.31,0,0,0,.5-.53c0-2.11,0-4.21,0-6.32q0-16.35,0-32.69c0-.14,0-.33-.08-.44L92.4,45.82c-.2-.19-.39-.4-.6-.59a2,2,0,0,1-.6.27,1.16,1.16,0,0,1-1.33-.91,1.21,1.21,0,0,1,.28-1c-1.25-1.28-2.53-2.54-3.79-3.81-.08-.07-.15-.18-.27-.17H72.34a.29.29,0,0,0-.25.12l-.71.72a.56.56,0,0,0-.14.34q0,17.84,0,35.69a.28.28,0,0,1-.11.23c-3,3-6,6-8.95,9-.09.08-.18.2-.32.19H52.6c-.2,0-.31.15-.44.27s-.47.45-.68.7c0,.68,0,1.36,0,2a5.23,5.23,0,0,0,0,.77c.51.56,1.08,1.07,1.59,1.62,0,.45,0,.9,0,1.35q0,5.12,0,10.24c0,1.41,0,2.83,0,4.24.9,0,1.8,0,2.7,0a9.45,9.45,0,0,1,.82.8q1.55,1.57,3.12,3.12h-.69l-2.72-2.71a5.93,5.93,0,0,0-.5-.48,9.52,9.52,0,0,0-1.29,0H52.44c0-1.8,0-3.6,0-5.39,0-3.24,0-6.48,0-9.73,0-.47,0-.95,0-1.41-.5-.52-1-1-1.52-1.53a.24.24,0,0,1-.07-.29l0-2.32c-.16-.23,0-.34.12-.46.47-.45.92-.92,1.38-1.38.13-.16.36-.1.54-.11h9c.17,0,.26-.14.37-.24,2.17-2.18,4.36-4.35,6.53-6.54.59-.6,1.21-1.19,1.79-1.8,0-.43,0-.87,0-1.31q0-17.27,0-34.53c0-.3.31-.44.48-.65m19.78,3.36a.47.47,0,1,0,.61.3A.49.49,0,0,0,90.84,43.43Z"/><path d="M7.37,40.27a1.11,1.11,0,0,1,1.23-.19,1.78,1.78,0,0,1,.53.45,11.26,11.26,0,0,0,1.22,0c.15-.11.26-.28.42-.38a1.11,1.11,0,0,1,1.14-.05,2,2,0,0,1,.49.44c.41,0,.82,0,1.22,0A1.22,1.22,0,0,1,14.84,40a1.29,1.29,0,0,1,.79.54c.37,0,.75,0,1.12,0,.16,0,.22-.15.32-.24a1.13,1.13,0,0,1,1.57,0c.09.08.15.2.25.26.41,0,.81,0,1.22,0a1.41,1.41,0,0,1,.73-.53,1.18,1.18,0,0,1,1.27.53c.54,0,1.08,0,1.62,0q0,8.72,0,17.43a.31.31,0,0,0,.11.25c1,1,2,2,3,3.05,0,.79,0,1.59,0,2.39q0,7.11,0,14.22c0,.18.15.28.25.4.66.63,1.28,1.29,1.94,1.92s1.47,1.45,2.18,2.19l4.37,4.37c.86.81,1.68,1.66,2.5,2.51L40,91.14c.14.15.06.39.08.58q0,9.64,0,19.28h-.67q0-9.84,0-19.68c0-.12-.1-.19-.17-.27C36.14,88,33.08,84.88,30,81.82c-1.19-1.19-2.37-2.39-3.56-3.57-.07-.08-.18-.16-.16-.28q0-6.9,0-13.81c0-.94,0-1.87,0-2.81-.3-.36-.66-.66-1-1l-1.78-1.78a4,4,0,0,1-.39-.41c0-.91,0-1.83,0-2.75s0-1.84,0-2.76q0-2.59,0-5.18,0-3.11,0-6.22a2.53,2.53,0,0,0-.77,0,1.32,1.32,0,0,1-.8.95,1.16,1.16,0,0,1-1.43-.61,2.67,2.67,0,0,1-.1-.34,3.67,3.67,0,0,0-.92,0,4.68,4.68,0,0,1-.22.54,1.24,1.24,0,0,1-.93.52,1.17,1.17,0,0,1-1.1-.81c0-.09,0-.25-.17-.25a5,5,0,0,0-.83,0,1.58,1.58,0,0,1-.33.67,1.37,1.37,0,0,1-.73.37,1.21,1.21,0,0,1-1.26-1,2.3,2.3,0,0,0-.94,0,1.22,1.22,0,0,1-.71.92,1.15,1.15,0,0,1-1.33-.33,1.91,1.91,0,0,1-.28-.6,1.44,1.44,0,0,0-.48,0,1,1,0,0,0-.46.06,1.2,1.2,0,0,1-.82.95A1.11,1.11,0,0,1,7.37,42,2.15,2.15,0,0,1,7,41.45c-1.38,1.4-2.78,2.78-4.17,4.18C1.88,46.56,1,47.51,0,48.43v-.66l6.94-6.95c.16-.17.25-.4.43-.55M8,40.16a.42.42,0,0,0-.35.31c0,.16,0,.37.11.48a.51.51,0,0,0,.53.1.64.64,0,0,0,.28-.34A.49.49,0,0,0,8,40.16m9.78,0a.47.47,0,0,0-.4.58.47.47,0,1,0,.4-.58m-6.62,0a.4.4,0,0,0-.25.25.47.47,0,0,0,.51.62.46.46,0,0,0,.27-.77c-.12-.17-.35-.12-.53-.11m3.23,0a.49.49,0,0,0-.15.72.47.47,0,0,0,.7,0c.14-.13.08-.34.08-.51a.73.73,0,0,0-.23-.23,1.33,1.33,0,0,0-.41,0m6.5,0a.52.52,0,0,0-.2.67.48.48,0,0,0,.83,0,.54.54,0,0,0-.11-.56C21.29,40.14,21.09,40.19,20.92,40.2Z"/><path d="M61,43c.35-.25.6-.61.94-.87.66,0,1.32,0,2,0,0,1.34,0,2.68,0,4a1.28,1.28,0,0,1,.56,1,1.19,1.19,0,0,1-.42.86c-.05.05-.15.09-.14.18,0,1.48,0,3,0,4.44a1.29,1.29,0,0,1,.55,1,1.51,1.51,0,0,1-.15.55,2.4,2.4,0,0,1-.4.46c0,1.49,0,3,0,4.49a1.39,1.39,0,0,1,.48.62,1.13,1.13,0,0,1-.15,1c-.09.13-.24.22-.33.35,0,1.49,0,3,0,4.48a1.29,1.29,0,0,1,.55,1,1.23,1.23,0,0,1-.55,1c0,1.51,0,3,0,4.52a1.27,1.27,0,0,1,.52.75A1.24,1.24,0,0,1,64,74.13c0,.64,0,1.28,0,1.92a2.9,2.9,0,0,1-.41.44c-.53.51-1,1.06-1.57,1.55-1.4,0-2.8,0-4.2,0-1.1,0-2.2,0-3.3,0,0-.17,0-.33,0-.5-.48-.5-1-1-1.47-1.48,0-.66,0-1.32,0-2a1.21,1.21,0,0,1-.43-1.35c.06-.25.28-.41.43-.6q0-2.27,0-4.55a1.54,1.54,0,0,1-.44-.61,1.14,1.14,0,0,1,.57-1.39,2.39,2.39,0,0,0,.62-.53q3.66-3.64,7.3-7.3a1.25,1.25,0,0,1-.38-.56,1.14,1.14,0,0,1,.46-1.29c.07,0,0-.14,0-.21,0-1.45,0-2.9,0-4.35A1.16,1.16,0,0,1,60.66,50a1.5,1.5,0,0,1,.49-.66c0-1.5,0-3,0-4.49a1.25,1.25,0,0,1-.55-1A1.2,1.2,0,0,1,61,43m1-.2a1.21,1.21,0,0,1,.67.54,1.39,1.39,0,0,1,.11.89,1.23,1.23,0,0,1-1,.84c0,.87,0,1.74,0,2.61,0,.52,0,1,0,1.56a1.22,1.22,0,0,1,1,.85,1.35,1.35,0,0,1-.12.88,1.2,1.2,0,0,1-.92.58q0,2.1,0,4.19a1.11,1.11,0,0,1,1.05,1.13,1,1,0,0,1-.16.62,1.31,1.31,0,0,1-1.25.55c-.89.85-1.75,1.74-2.63,2.61-1.62,1.63-3.25,3.24-4.86,4.88a1.61,1.61,0,0,1,.49.35,1.16,1.16,0,0,1,0,1.52,1.21,1.21,0,0,1-.83.4c0,1.4,0,2.8,0,4.19a1.19,1.19,0,0,1,1,.6,1.17,1.17,0,0,1,0,1.15,1.14,1.14,0,0,1-.95.56c0,.6,0,1.19,0,1.79L54.9,77.3c.08.11.23.07.35.08h6.67c.09,0,.14-.08.2-.12l1.18-1.19c0-.6,0-1.2,0-1.79a1.15,1.15,0,0,1-.87-.53,1.14,1.14,0,0,1,0-1.18,1.18,1.18,0,0,1,.92-.6c0-1.4,0-2.8,0-4.2a1.19,1.19,0,0,1-1-.67,1.17,1.17,0,0,1,.16-1.21,1.24,1.24,0,0,1,.8-.42c0-1.4,0-2.8,0-4.19a1.13,1.13,0,0,1-.87-.53,1.16,1.16,0,0,1,0-1.18,1.21,1.21,0,0,1,.91-.6q0-2.1,0-4.19a1.16,1.16,0,0,1-1.05-.93.91.91,0,0,1,.09-.71,1.24,1.24,0,0,1,1-.67c0-1.4,0-2.8,0-4.19a1.14,1.14,0,0,1-1-.8,1.21,1.21,0,0,1,.2-1.06,1.3,1.3,0,0,1,.82-.45c0-1.06,0-2.12,0-3.18-.4,0-.8,0-1.2,0m-.49.66a.48.48,0,0,0-.14.82.47.47,0,0,0,.72-.19c0-.17.06-.38-.08-.5a.48.48,0,0,0-.5-.13m1.67,3.22a.52.52,0,0,0-.24.16.46.46,0,0,0,.28.77.49.49,0,0,0,.55-.39.5.5,0,0,0-.58-.53M61.6,49.93a.43.43,0,0,0-.3.48.44.44,0,0,0,.54.42.6.6,0,0,0,.35-.28.63.63,0,0,0-.08-.5.47.47,0,0,0-.5-.13m1.56,3.28a.57.57,0,0,0-.27.38c0,.24.2.53.47.49a.45.45,0,0,0,.39-.72c-.11-.22-.39-.18-.59-.15M61.6,56.43a.49.49,0,0,0-.11.85.76.76,0,0,0,.57-.05c.17-.14.14-.38.11-.57a.49.49,0,0,0-.57-.23m1.68,3.24a.47.47,0,0,0,.08.93.51.51,0,0,0,.49-.41.49.49,0,0,0-.58-.52m-9.73,6.49a.47.47,0,1,0,.52.64.62.62,0,0,0-.09-.5.55.55,0,0,0-.44-.15m9.73,0a.48.48,0,1,0,.54.66.48.48,0,0,0-.54-.66m-9.78,6.52a.47.47,0,1,0,.52.74.63.63,0,0,0,.06-.47.49.49,0,0,0-.58-.27m9.73,0a.47.47,0,1,0,.59.64C64,73,63.58,72.54,63.22,72.67Z"/><path d="M6.77,43.28c.18.06.25-.21.42-.21h9.35c1.44,0,2.88,0,4.33,0,0,1.12,0,2.24,0,3.36a1.29,1.29,0,0,1,.87.56,1.15,1.15,0,0,1-.16,1.44,1.2,1.2,0,0,1-.7.33c0,1.39,0,2.78,0,4.17a1.43,1.43,0,0,1,.71.37,1.14,1.14,0,0,1,.15,1.44,1.16,1.16,0,0,1-.86.52c0,.87,0,1.74,0,2.6,0,.12,0,.26.08.34l2.92,3a.3.3,0,0,1,.11.25q0,6.42,0,12.84c0,1.26,0,2.51,0,3.77,1.4,1.45,2.82,2.87,4.23,4.3a3.16,3.16,0,0,1,.55-.15,1.2,1.2,0,0,1,1.11.86,1.43,1.43,0,0,1-.08.88c.81.87,1.66,1.69,2.48,2.54s1.54,1.58,2.33,2.35h.17a.93.93,0,0,1,1,.06,1.19,1.19,0,0,1,.53.87,2.76,2.76,0,0,1-.12.68c.22.28.51.49.73.77A7,7,0,0,1,37,92a1.73,1.73,0,0,1,.6.32,1.19,1.19,0,0,1,.13,1.53,1.46,1.46,0,0,1-.73.47q0,2.09,0,4.19a1.38,1.38,0,0,1,.62.35,1.15,1.15,0,0,1,.13,1.46,1.19,1.19,0,0,1-.74.48c0,.51,0,1,0,1.55,0,.89,0,1.77,0,2.66a1.22,1.22,0,0,1,.94,1,1.19,1.19,0,0,1-.39,1,2,2,0,0,1-.56.29c0,1.24,0,2.47,0,3.71H36.3c0-1.27,0-2.55,0-3.82a1.67,1.67,0,0,1-.49-.54,1.16,1.16,0,0,1,.27-1.38c.09-.1.25-.15.23-.31,0-1.43,0-2.85,0-4.28a1.74,1.74,0,0,1-.49-.55A1.17,1.17,0,0,1,35.88,99a2.11,2.11,0,0,1,.41-.39c0-.64,0-1.27,0-1.91,0-.83,0-1.67,0-2.5a1.66,1.66,0,0,1-.46-.46,1.18,1.18,0,0,1,0-1.21,1.56,1.56,0,0,1,.43-.42,5.38,5.38,0,0,0,0-.84,2.15,2.15,0,0,0-.4-.42,1.2,1.2,0,0,1-.69.2,1.11,1.11,0,0,1-1.12-1.13,1.61,1.61,0,0,1,.2-.7c-1.38-1.45-2.8-2.86-4.2-4.29-.2-.19-.38-.4-.59-.58a1.24,1.24,0,0,1-.89.2,1.19,1.19,0,0,1-.84-.72,1.33,1.33,0,0,1,.13-1.1c-.68-.74-1.41-1.44-2.11-2.17s-1.62-1.62-2.41-2.46c0-.45,0-.91,0-1.36q0-6.91,0-13.81c0-.53,0-1.06,0-1.58-.94-1-1.91-1.94-2.86-2.91-.07-.06-.13-.16-.24-.15-.32-.06-.54.24-.85.27a1.22,1.22,0,0,1-.89-.23,1.79,1.79,0,0,0-.57,0c-.37,0-.74,0-1.11,0a1.73,1.73,0,0,1-.81.27,1.77,1.77,0,0,1-.76-.27c-.49,0-1,0-1.46,0-.33,0-.57.31-.9.29a1.84,1.84,0,0,1-.87-.28c-.49,0-1,0-1.46,0-.2,0-.35.13-.52.2a1,1,0,0,1-1-.1c-.21-.17-.48-.1-.73-.11,0,.42,0,.85,0,1.27a1.19,1.19,0,0,1,.78.78,1.14,1.14,0,0,1-.24,1.11,1.51,1.51,0,0,1-.55.37c0,1.14,0,2.29,0,3.43a7.53,7.53,0,0,0,0,.82,1.43,1.43,0,0,1,.51.31A1.17,1.17,0,0,1,9,67.65a1.31,1.31,0,0,1-.72.61c0,.72,0,1.44,0,2.17a.25.25,0,0,1-.07.19c-.23,0-.46,0-.69,0a1.3,1.3,0,0,1-.69.81,1.14,1.14,0,0,1-1.22-.22,1.62,1.62,0,0,1-.33-.59c-.32,0-.63,0-1,0a2.56,2.56,0,0,1-.26.49,1.13,1.13,0,0,1-1.29.34,1.33,1.33,0,0,1-.72-.82c-.32,0-.63,0-.95,0a1.39,1.39,0,0,1-.37.61,1.32,1.32,0,0,1-.74.31v-.67c.17-.07.39-.14.45-.34s-.15-.62-.45-.67V64.4c.2-.06.42-.17.47-.4A.53.53,0,0,0,0,63.36V57.87a.51.51,0,0,0,.45-.67C.4,57,.18,56.92,0,56.86V51.38c.2-.07.43-.16.47-.39s-.2-.56-.47-.62v-.66l.49.09,4.86-4.94a2.17,2.17,0,0,1-.1-.56,1.22,1.22,0,0,1,.66-1,1.16,1.16,0,0,1,.85-.05m-.42.15a.48.48,0,0,0-.17.8A.47.47,0,0,0,7,44a.48.48,0,0,0-.62-.54m3.22,0a.5.5,0,0,0-.2.77.49.49,0,1,0,.72-.66.51.51,0,0,0-.52-.11m3.33,0a.47.47,0,0,0-.35.65.5.5,0,0,0,.44.31.51.51,0,0,0,.44-.67.46.46,0,0,0-.54-.29m3.17,0a.49.49,0,1,0,.64.32.5.5,0,0,0-.64-.32m3.28,0a.48.48,0,1,0,.29.92.5.5,0,0,0,.23-.75.5.5,0,0,0-.53-.17M4.8,46.64a.5.5,0,0,0-.33.75.48.48,0,0,0,.83,0,.5.5,0,0,0-.5-.73m3.22,0a.49.49,0,1,0,.56.67A.5.5,0,0,0,8,46.64m3.28,0a.5.5,0,0,0-.36.72.49.49,0,0,0,.88,0,.5.5,0,0,0-.52-.69m3.22,0a.5.5,0,0,0-.38.5.47.47,0,0,0,.63.45.48.48,0,0,0,.28-.66.49.49,0,0,0-.54-.28m3.28,0a.51.51,0,0,0-.41.5.49.49,0,0,0,.67.44.49.49,0,0,0-.26-.94m3.23,0a.47.47,0,0,0,.09.94c.38.05.58-.44.39-.73a.48.48,0,0,0-.48-.21m-18,3.27a.48.48,0,1,0,.65.53.49.49,0,0,0-.65-.53m3.28,0a.48.48,0,1,0,.63.44.48.48,0,0,0-.63-.44m3.22,0a.49.49,0,0,0-.26.68.54.54,0,0,0,.47.26.52.52,0,0,0,.44-.34.49.49,0,0,0-.65-.6m3.28,0a.49.49,0,0,0,.07.94.47.47,0,0,0,.56-.44.49.49,0,0,0-.63-.51m3.23,0a.49.49,0,0,0-.06.88.49.49,0,1,0,.06-.88m3.28,0a.48.48,0,0,0-.17.83.49.49,0,1,0,.17-.83m-18,3.3a.49.49,0,0,0-.22.37.5.5,0,0,0,.59.52.5.5,0,0,0,.28-.8.51.51,0,0,0-.64-.09m3.27,0a.49.49,0,0,0,.26.91.49.49,0,1,0-.26-.91m3.23,0a.47.47,0,0,0-.1.72.48.48,0,0,0,.82-.13.49.49,0,0,0-.72-.59m3.27,0a.48.48,0,1,0,.72.38.48.48,0,0,0-.72-.38m3.27,0a.49.49,0,0,0,.06.9.49.49,0,1,0-.06-.9m3.23,0a.49.49,0,1,0,.72.33.5.5,0,0,0-.72-.33m3.28,0a.48.48,0,1,0,.57.74.54.54,0,0,0,.09-.46.46.46,0,0,0-.65-.28M3.07,56.42a.49.49,0,1,0,.64.59.49.49,0,0,0-.64-.59m3.28,0A.49.49,0,1,0,7,57a.49.49,0,0,0-.63-.56m3.22,0a.47.47,0,0,0-.3.5.48.48,0,1,0,.86-.35.5.5,0,0,0-.56-.15m3.23,0a.5.5,0,0,0-.17.76.48.48,0,1,0,.17-.76m3.27,0a.48.48,0,1,0,.64.58.49.49,0,0,0-.64-.58m3.23,0a.47.47,0,0,0-.17.75.48.48,0,1,0,.17-.75M1.52,59.65a.48.48,0,1,0,.58.49.47.47,0,0,0-.58-.49m3.28,0a.48.48,0,1,0,.55.55.49.49,0,0,0-.55-.55m3.23,0a.48.48,0,0,0-.24.81.49.49,0,0,0,.78-.16A.48.48,0,0,0,8,59.66M3,62.94a.5.5,0,0,0,0,.88.49.49,0,1,0,0-.88m3.28,0a.49.49,0,0,0,0,.86A.48.48,0,0,0,7,63.42a.49.49,0,0,0-.69-.49M1.52,66.14a.48.48,0,1,0,.58.56.49.49,0,0,0-.58-.56m3.23,0a.5.5,0,0,0-.16.87.49.49,0,1,0,.16-.87m3.28,0a.48.48,0,1,0,.54.66A.49.49,0,0,0,8,66.15m-5,3.29a.48.48,0,0,0,.29.91.49.49,0,0,0,.36-.53.47.47,0,0,0-.65-.38m3.23,0a.49.49,0,0,0-.11.8c.13.12.32.07.47.07a.48.48,0,0,0,.14-.8.49.49,0,0,0-.51-.07m22.86,13a.49.49,0,0,0-.12.89c.18,0,.41.06.54-.09s.11-.37.09-.55a.48.48,0,0,0-.51-.26M35.54,89a.42.42,0,0,0-.24.42.41.41,0,0,0,.5.44.44.44,0,0,0,.35-.69.51.51,0,0,0-.61-.18m1.67,3.23a.43.43,0,0,0-.29.42.47.47,0,1,0,.93,0,.48.48,0,0,0-.64-.47m0,6.5a.49.49,0,0,0-.26.66.48.48,0,0,0,.63.21.46.46,0,0,0,.13-.75.47.47,0,0,0-.5-.12m0,6.5a.47.47,0,1,0,.64.48A.47.47,0,0,0,37.2,105.18Z"/><path d="M105.13,51.09c2-1.95,3.9-3.91,5.87-5.86v.65l-4.87,4.88c-.28.29-.59.56-.86.87,0,1.27,0,2.55,0,3.83q0,16.66,0,33.33c-.05.28.23.42.31.66a1.16,1.16,0,0,1-.6,1.48,1.67,1.67,0,0,1-1,0c-.13.12-.33.24-.3.44q0,9.81,0,19.63H103q0-9.81,0-19.63a.26.26,0,0,1,.06-.21c.17-.21.39-.37.55-.58a1.22,1.22,0,0,1,0-1.42,1.33,1.33,0,0,1,1-.46c0-12.33,0-24.65,0-37,.08-.27.37-.42.54-.63M103.79,89a.48.48,0,0,0-.06.81c.12.1.28.05.43.06a.5.5,0,0,0,.23-.72A.53.53,0,0,0,103.79,89Z"/><path d="M107.27,51.5c1.25-1.24,2.48-2.49,3.73-3.72v.66c-1,1.08-2.14,2.12-3.18,3.21,0,.43,0,.86,0,1.29,0,1.1,0,2.19,0,3.29a1.23,1.23,0,0,1,.73.32,1.13,1.13,0,0,1,.13,1.54,1.4,1.4,0,0,1-.86.47c0,1.39,0,2.78,0,4.17a1.23,1.23,0,0,1,.92.55,1.14,1.14,0,0,1-.27,1.52,1.91,1.91,0,0,1-.65.27c0,1.39,0,2.78,0,4.16a1.22,1.22,0,0,1,1,.74,1.16,1.16,0,0,1-.66,1.49l-.36.1c0,1.39,0,2.78,0,4.17a1.15,1.15,0,0,1,.58,2.11,2.22,2.22,0,0,1-.59.21c0,1.38,0,2.76,0,4.15a2.6,2.6,0,0,1,.61.24,1.14,1.14,0,0,1,.49.94,1.12,1.12,0,0,1-.6,1,5.09,5.09,0,0,1-.5.18c0,1.68,0,3.35,0,5a7.54,7.54,0,0,1-.66.69c-.31.32-.65.62-.93,1a4.93,4.93,0,0,0,0,.73,1.37,1.37,0,0,1,.72.33,1.14,1.14,0,0,1,.16,1.48,1.34,1.34,0,0,1-.88.51c0,1.39,0,2.78,0,4.17a1.27,1.27,0,0,1,.92.59,1.13,1.13,0,0,1-.22,1.41,1.41,1.41,0,0,1-.71.33c0,1.39,0,2.78,0,4.17a1.52,1.52,0,0,1,.63.25,1.14,1.14,0,0,1,.29,1.5,1.29,1.29,0,0,1-.92.59c0,1.23,0,2.47,0,3.7h-.67c0-1.3,0-2.59,0-3.89a1.29,1.29,0,0,1-.52-.76,1.14,1.14,0,0,1,.38-1.1c.07-.07.16-.13.15-.24,0-1.42,0-2.84,0-4.26,0-.16-.13-.24-.22-.34a1.12,1.12,0,0,1-.21-1.3,1.37,1.37,0,0,1,.41-.46,6.73,6.73,0,0,0,0-.71c0-1.25,0-2.49,0-3.74,0-.12-.12-.18-.19-.26a1.1,1.1,0,0,1,0-1.59c.07-.08.18-.14.22-.24,0-.3,0-.6,0-.9.26-.33.6-.6.89-.91s.5-.46.71-.73c0-.36,0-.72,0-1.08,0-1.37,0-2.75,0-4.12-.11-.16-.27-.27-.37-.43a1.13,1.13,0,0,1,0-1.2c.09-.15.28-.24.33-.41,0-1.46,0-2.91,0-4.37,0-.12-.11-.19-.17-.27a1.14,1.14,0,0,1-.18-1.42,4.34,4.34,0,0,1,.34-.4c0-.36,0-.71,0-1.07,0-1.14,0-2.29,0-3.43a2.81,2.81,0,0,1-.37-.44,1.13,1.13,0,0,1,.18-1.35c.08-.09.21-.16.2-.3,0-1.4,0-2.8,0-4.2.05-.32-.34-.44-.42-.72a1.1,1.1,0,0,1,.2-1.24c.09-.1.24-.18.22-.34,0-1.47,0-2.94,0-4.41a1.53,1.53,0,0,1-.45-.59,1.12,1.12,0,0,1,.26-1.2c.08-.09.21-.16.2-.3,0-1.5,0-3,0-4.49a.32.32,0,0,1,.13-.28m-.19,4.94a.48.48,0,0,0-.17.75c.12.17.36.13.54.11a.47.47,0,0,0,.18-.72.54.54,0,0,0-.55-.14m0,6.5a.47.47,0,0,0-.24.65.46.46,0,0,0,.61.23.48.48,0,0,0,.18-.73c-.12-.19-.36-.16-.55-.14m0,6.5a.47.47,0,1,0,.65.43.48.48,0,0,0-.65-.43m0,6.5a.47.47,0,1,0,.6.66.48.48,0,0,0-.13-.6.71.71,0,0,0-.47-.06m.13,6.46a.48.48,0,0,0-.41.48.49.49,0,0,0,.49.49.5.5,0,0,0,.44-.49.48.48,0,0,0-.53-.48m-1.73,9.78a.45.45,0,0,0-.3.43.46.46,0,0,0,.51.49.47.47,0,0,0,.3-.79.47.47,0,0,0-.5-.13m0,6.51a.44.44,0,0,0-.3.42.47.47,0,1,0,.3-.42m0,6.5a.47.47,0,1,0,.63.38A.48.48,0,0,0,105.46,105.18Z"/><path d="M109.5,49.82c.19-.37.59-.6.5-.61v.66c.33.06.13.14.05.32a.47.47,0,0,0,.09.51c.1.09.23.12-.15.18v5.48c.32.05.1.13,0,.34s.14.64,0,.67v5.49c.27.06,0,.21,0,.47s.22.51,0,.57v5.48c.33.05.14.12.07.29a.47.47,0,0,0,.09.55c.1.08.23.11-.16.17v.67c.28,0,.06-.11-.15-.2,0,5.94,0,11.89,0,17.83,0,.17.05.39-.1.51l-1.41,1.41a.29.29,0,0,0-.09.26c0,6.54,0,13.09,0,20.13h-.69c0-7,0-13.55,0-20.07,0-.1,0-.22.07-.29.5-.51,1-1,1.52-1.53a.94.94,0,0,0-.14-.83V85.18a31.71,31.71,0,0,0,.19-3.51q0-2,0-4.09c0-.57,0-1.15,0-1.73.05-1.28,0-2.57,0-3.86s0-2.38,0-3.57q0-8.55,0-17.1c0-.21.16-.34.28-.48l-.07-.28A1,1,0,0,1,109.5,49.82Z"/><path d="M44.52,56.25a1.21,1.21,0,0,1,.95-.51,1.14,1.14,0,0,1,.8.26,1.16,1.16,0,0,1,.23,1.45c0,.07.1.14.15.21q0,.52,0,1c-.37,0-.74,0-1.1,0-.12,0-.26,0-.34-.08-.33-.33-.66-.65-1-1,0-.46,0-.93,0-1.39h.33m.8.18a.5.5,0,0,0-.25.66.49.49,0,0,0,.75.12.47.47,0,0,0,0-.72A.62.62,0,0,0,45.32,56.43Z"/><path d="M10.23,60.7a1.16,1.16,0,0,1,1.44-1.19,1.36,1.36,0,0,1,.75.59c.37,0,.74,0,1.11,0,.09,0,.13-.09.18-.15a1.13,1.13,0,0,1,1.37-.4,1.43,1.43,0,0,1,.62.54c.39,0,.77,0,1.16,0l.18-.22a1.11,1.11,0,0,1,1.32-.31,1.4,1.4,0,0,1,.58.52c.52,0,1.05,0,1.58,0,.13,0,.2.11.29.18.34.36.71.68,1,1.05a4.25,4.25,0,0,1,0,.62q0,7.25,0,14.5c0,.53,0,1.06,0,1.58,2.79,2.83,5.63,5.62,8.42,8.44q2.32,2.32,4.64,4.63a.27.27,0,0,1,.11.2q0,9.84,0,19.68h-.69q0-9.52,0-19c0-.3.11-.68-.16-.89Q29.57,86.46,25,81.88L21.29,78.2a.33.33,0,0,1-.14-.29q0-8.06,0-16.12a2.72,2.72,0,0,0,0-.48,4.25,4.25,0,0,0-.51-.51c-.53,0-1.06,0-1.6,0a1.42,1.42,0,0,1-.5.77,1.13,1.13,0,0,1-1.47-.14,1.76,1.76,0,0,1-.35-.63c-.3,0-.61,0-.91,0a2,2,0,0,1-.32.6,1.17,1.17,0,0,1-1.16.34,1.2,1.2,0,0,1-.85-.94c-.32,0-.63,0-.95,0a1.27,1.27,0,0,1-.56.82,1.39,1.39,0,0,1-1,.13c0,2.91,0,5.82,0,8.72,0,.09-.06.15-.12.21-.76.76-1.52,1.51-2.27,2.28-.1.09-.19.22-.34.2H2.72a2.12,2.12,0,0,1,0,.65,1.05,1.05,0,0,1-.76.86l-.08.09c0,1.41,0,2.81,0,4.22.14.09.3.15.43.26a1.14,1.14,0,0,1,.33,1.34,1.36,1.36,0,0,1-.75.69q0,2.1,0,4.21a1.36,1.36,0,0,1,.75.69,1.14,1.14,0,0,1-.36,1.37c-.12.09-.27.14-.4.23,0,.6,0,1.21,0,1.81-.47.51-1,1-1.45,1.47a.63.63,0,0,0-.15.38c0,.94,0,1.88,0,2.82,0,.33,0,.66,0,1a1.26,1.26,0,0,1,.8.83A1.1,1.1,0,0,1,.94,97a1.39,1.39,0,0,1-.64.47c0,.87,0,1.75,0,2.62,0,.54,0,1.09,0,1.63a1.64,1.64,0,0,1,.54.34,1.33,1.33,0,0,1,.31.79,1.29,1.29,0,0,1-.39.84A2,2,0,0,1,.3,104c0,.86,0,1.71,0,2.57,0,.56,0,1.13,0,1.69a1.35,1.35,0,0,1,.59.41,1.12,1.12,0,0,1,.18,1.1,1.25,1.25,0,0,1-.77.74c0,.17,0,.33,0,.5H0v-1.14a.52.52,0,0,0,.46-.35c.12-.3-.17-.58-.46-.62v-5.54a.49.49,0,0,0,.45-.64c-.05-.21-.27-.28-.45-.35v-5.5a.65.65,0,0,0,.44-.32.46.46,0,0,0-.1-.5A1.8,1.8,0,0,0,0,95.87v-5c.39-.38.77-.76,1.14-1.14.12-.1.08-.26.09-.39,0-.44,0-.89,0-1.33a.59.59,0,0,0,0-.26,4.33,4.33,0,0,1-.41-.3A1.18,1.18,0,0,1,.66,86a1.58,1.58,0,0,1,.49-.44c.08,0,.06-.15.07-.22,0-1.33,0-2.65,0-4,0-.19-.21-.23-.31-.33a1.15,1.15,0,0,1,0-1.8c.11-.1.33-.15.31-.34q0-2,0-4c0-.16-.14-.21-.24-.28A1.14,1.14,0,0,1,.6,73.11a1.18,1.18,0,0,1,.78-.62c.67,0,1.34,0,2,0,1.46,0,2.92,0,4.37,0,.23,0,.52.1.69-.11.58-.59,1.17-1.17,1.75-1.76.08-.06.07-.17.07-.26,0-2.94,0-5.87,0-8.81a4.61,4.61,0,0,0,0-.86m1-1a.5.5,0,0,0-.35.37.49.49,0,0,0,.64.52.48.48,0,0,0,.13-.81.51.51,0,0,0-.42-.08m3.28,0a.48.48,0,0,0-.23.8.47.47,0,0,0,.76-.16c0-.16.05-.35-.07-.47a.46.46,0,0,0-.45-.16m3.28,0a.48.48,0,0,0-.33.73.49.49,0,0,0,.74.07.56.56,0,0,0,.1-.52.51.51,0,0,0-.51-.29m-16.29,13a.48.48,0,0,0-.23.8A.49.49,0,0,0,2,73.35a1.1,1.1,0,0,0,0-.46.48.48,0,0,0-.51-.23m0,6.5a.57.57,0,0,0-.34.28.55.55,0,0,0,.14.55.47.47,0,0,0,.74-.23.46.46,0,0,0-.54-.59m-.06,6.51a.48.48,0,0,0-.26.66.51.51,0,0,0,.41.25.4.4,0,0,0,.44-.38A.57.57,0,0,0,2,85.79.52.52,0,0,0,1.46,85.68Z"/><path d="M35.37,62.3a1.18,1.18,0,0,1,1.42.56c.34,0,.68,0,1,0,.16,0,.22-.13.3-.23a1.15,1.15,0,0,1,1.77,0,.41.41,0,0,0,.37.22c.26.21.48.48.72.71.68.68,1.36,1.37,2,2,0,0,.1.12.16.06a1.28,1.28,0,0,1,.78-.22,1.18,1.18,0,0,1,.88.53,1.13,1.13,0,0,1,.13.94c0,.15-.15.28-.19.44a5.27,5.27,0,0,0,.46.46c.51,0,1,0,1.54,0,.71,0,1.42,0,2.13,0,0,.29,0,.58,0,.86a1.2,1.2,0,0,1,.92.91,1.19,1.19,0,0,1-.34,1.07,1.7,1.7,0,0,1-.6.32q0,2.08,0,4.17a2.35,2.35,0,0,1,.56.29,1.25,1.25,0,0,1,.41.81,2.26,2.26,0,0,1-.12.62c.19.22.41.4.6.62a8.06,8.06,0,0,0,0,.92,1.21,1.21,0,0,1,1.07.86,1.17,1.17,0,0,1-.76,1.4,1.2,1.2,0,0,1-.88-.06c-1.14,1.1-2.25,2.23-3.37,3.35-.12.1-.21.28-.38.25H41.26c-.34,0-.68,0-1,0-.18-.15-.33-.32-.49-.48a1.25,1.25,0,0,1-1,.22,1.16,1.16,0,0,1-.87-1.17,1.56,1.56,0,0,1,.25-.68c-1.5-1.54-3-3-4.54-4.57-.05-1.15,0-2.31,0-3.46a1.25,1.25,0,0,1-.55-1,1.27,1.27,0,0,1,.55-1c0-1.48,0-3,0-4.45,0-.09-.09-.13-.14-.19a1.2,1.2,0,0,1-.41-.8,1.23,1.23,0,0,1,.55-1.07c0-.92,0-1.85,0-2.77.38,0,.76,0,1.14,0a1.42,1.42,0,0,1,.67-.56m.17.65a.51.51,0,0,0-.2.66.53.53,0,0,0,.4.26.5.5,0,0,0,.48-.4A.46.46,0,0,0,36,63c-.13-.13-.33-.09-.5-.07m3.28,0a.47.47,0,0,0-.26.61.5.5,0,0,0,.46.31.55.55,0,0,0,.41-.3.47.47,0,0,0-.62-.61m-4.61.61c0,.64,0,1.27,0,1.91a1.22,1.22,0,0,1,.91.59,1.24,1.24,0,0,1,.12.83,1.18,1.18,0,0,1-1,.9c0,1.4,0,2.8,0,4.19a1.19,1.19,0,0,1,1,.89,1.29,1.29,0,0,1-.12.83,1.21,1.21,0,0,1-.92.59c0,1.09,0,2.18,0,3.28l3.69,3.68a7.43,7.43,0,0,0,.61.59c.23-.05.47-.18.71-.08a1.15,1.15,0,0,1,.88,1.46.27.27,0,0,0,.3.38c1.94,0,3.87,0,5.81,0,.27-.22.49-.49.74-.72.83-.84,1.68-1.66,2.5-2.52a2,2,0,0,1-.22-.58,1.2,1.2,0,0,1,.47-1.07c0-.33,0-.66,0-1s-.14-.29-.27-.39a1.67,1.67,0,0,1-.48.2,1.14,1.14,0,0,1-1.35-1.14,1,1,0,0,1,.39-.86c.1-.1.28-.17.25-.34,0-1.4,0-2.8,0-4.2-.13-.18-.35-.28-.46-.48a1.29,1.29,0,0,1-.14-.91,1.2,1.2,0,0,1,.57-.72,2.59,2.59,0,0,0,0-.29c-.63,0-1.26,0-1.89,0-.36,0-.72,0-1.07,0-.31-.25-.56-.56-.85-.82-.15,0-.29.06-.43.06a1.15,1.15,0,0,1-1.24-1.18c0-.17.09-.33.07-.49-.76-.79-1.55-1.56-2.33-2.34-.1-.09-.18-.23-.33-.22a1.15,1.15,0,0,1-1.51.92,1.18,1.18,0,0,1-.79-.9H36.9a1.55,1.55,0,0,1-.37.67,1.17,1.17,0,0,1-1.19.23,1.13,1.13,0,0,1-.74-.89,3,3,0,0,0-.4,0M34,66.15a.49.49,0,0,0-.29.75.48.48,0,0,0,.81-.1.66.66,0,0,0-.09-.51.56.56,0,0,0-.44-.14m9.73,0a.49.49,0,0,0-.29.7.47.47,0,0,0,.79,0c.27-.32-.12-.84-.5-.72m4.83,3.28a.48.48,0,0,0-.05.87c.2,0,.47.06.59-.15a.52.52,0,0,0-.09-.64.5.5,0,0,0-.45-.08M34,72.67a.49.49,0,0,0-.08.87.5.5,0,0,0,.55-.07c.17-.12.12-.35.11-.53a.48.48,0,0,0-.58-.27m14.56,3.28a.73.73,0,0,0-.23.23,1.13,1.13,0,0,0,0,.4.46.46,0,0,0,.49.25c.41,0,.53-.59.24-.8-.13-.14-.34-.09-.5-.07m1.72,3.22a.47.47,0,0,0-.32.67.49.49,0,0,0,.4.26.47.47,0,1,0-.09-.93M38.93,82.4a.48.48,0,0,0-.35.7.53.53,0,0,0,.39.26.48.48,0,0,0,.49-.49A.47.47,0,0,0,38.93,82.4Z"/><path d="M36.07,65.42q2.08,0,4.15,0a9.48,9.48,0,0,1,.71.69c1.44,1.42,2.86,2.87,4.3,4.3.37,0,.75,0,1.11,0,0,1.87,0,3.74,0,5.62.45.47.92.91,1.38,1.38.05.06.13.11.11.2,0,.77,0,1.54,0,2.31a.24.24,0,0,1-.09.23c-.52.51-1,1-1.56,1.55-1.66,0-3.33,0-5,0-.32,0-.65,0-1,0-.73-.69-1.42-1.43-2.14-2.13s-1.35-1.34-2-2c0-.51,0-1,0-1.54,0-3.2,0-6.41,0-9.61,0-.33,0-.67,0-1m.67.67c0,3.82,0,7.64,0,11.46,1.16,1.16,2.31,2.33,3.49,3.47.4,0,.8,0,1.2,0h4.77c.34-.3.65-.63,1-.95,0-.85,0-1.7,0-2.54l-1.38-1.38c-.11-.09-.07-.25-.08-.37,0-1.57,0-3.14,0-4.7a1.75,1.75,0,0,1-.43,0c-.22-.18-.41-.4-.61-.6L40.26,66.1c-.28,0-.56,0-.84,0Z"/><path d="M38.63,68c.53,0,1.06,0,1.59,0a5.07,5.07,0,0,1,.57.54l2.7,2.71a2.48,2.48,0,0,1,.31.34c0,1.51,0,3,0,4.52.49.5,1,1,1.47,1.48,0,.55,0,1.1,0,1.65H40.25c-.32-.29-.62-.62-.93-.92a6.61,6.61,0,0,1-.75-.8,3.48,3.48,0,0,1-.37-.26,1.16,1.16,0,0,1-.26-1.27,1.44,1.44,0,0,1,.67-.67c.05-.45,0-.91,0-1.37q0-1.38,0-2.77c0-.19-.2-.23-.31-.33a1.14,1.14,0,0,1-.39-1.38,1.21,1.21,0,0,1,.65-.63,3.34,3.34,0,0,0,0-.83m.69.66,0,.09a4.69,4.69,0,0,1,.45.26,1.14,1.14,0,0,1,.41.89,1.18,1.18,0,0,1-.48.94c-.12.08-.26.13-.38.21q0,2.07,0,4.14c0,.11.11.13.19.17a1.15,1.15,0,0,1,.52,1.6,1.37,1.37,0,0,1-.72.58c.31.33.63.66,1,1,1.46,0,2.93,0,4.4,0,0-.31,0-.63,0-.94l-1.41-1.41a.25.25,0,0,1-.08-.23c0-1.45,0-2.91,0-4.36a4.31,4.31,0,0,0-.45-.47c-.79-.81-1.6-1.58-2.39-2.39a.15.15,0,0,0-.14-.07h-.84m-.51.81a.49.49,0,0,0-.27.56.48.48,0,0,0,.71.27.5.5,0,0,0,.11-.69.51.51,0,0,0-.55-.13m0,6.5a.47.47,0,0,0-.19.72.49.49,0,0,0,.81-.1.51.51,0,0,0-.1-.51C39.22,75.88,39,75.92,38.81,75.94Z"/><path d="M72.3,77.4a.3.3,0,0,1,.27-.11H94.91c0,1.16,0,2.33,0,3.49,0,2.67,0,5.33,0,8,0,.2.19.3.28.45a1.16,1.16,0,0,1-.39,1.64,1.35,1.35,0,0,1-1.16,0c-.14.14-.36.26-.34.48q0,9.81,0,19.63h-.68q0-9.61,0-19.22a2.89,2.89,0,0,1,0-.57c.19-.24.43-.43.63-.66a1.34,1.34,0,0,1-.11-1.08,1.24,1.24,0,0,1,1.08-.77q0-5.37,0-10.73c-.59,0-1.17,0-1.76,0H72.57c-.18,0-.29.14-.4.25-.43.45-.89.86-1.3,1.32a1.43,1.43,0,0,1,.17.7,1.19,1.19,0,0,1-1.17,1.07,1.82,1.82,0,0,1-.61-.16c-1.6,1.58-3.18,3.18-4.77,4.76l-.06.28a1.07,1.07,0,0,1,.1.65,1.18,1.18,0,0,1-1.1,1,1.62,1.62,0,0,1-.67-.16,8.85,8.85,0,0,1-.79.74c-2.3,0-4.59,0-6.89,0-.36,0-.71,0-1.07,0q0,.54,0,1.07c0,.12.08.2.15.28l1.38,1.38c.16.13.09.35.1.53,0,1.2,0,2.41,0,3.61a1.61,1.61,0,0,1,.59.57,1.17,1.17,0,0,1-.14,1.29,1.83,1.83,0,0,1-.44.32c-.05.56,0,1.13,0,1.69,0,.88,0,1.75,0,2.63.12.09.26.16.37.26a1.17,1.17,0,0,1,.2,1.42,1.38,1.38,0,0,1-.56.49,2.19,2.19,0,0,0,0,.55c.31.07.47.35.69.54a1.7,1.7,0,0,1,.75-.06,1.19,1.19,0,0,1,.91,1.11,2.16,2.16,0,0,1-.1.51c1.44,1.48,2.91,2.93,4.37,4.39h-.69l-2-2c-.68-.66-1.33-1.36-2-2a1.6,1.6,0,0,1-.63.25,1.15,1.15,0,0,1-1.24-1.17,1.38,1.38,0,0,1,.24-.74.85.85,0,0,0-.18-.15c-.28,0-.56,0-.84,0,0-.4,0-.8,0-1.2a1.24,1.24,0,0,1-.79-.78,1.12,1.12,0,0,1,.22-1.1,1.51,1.51,0,0,1,.57-.37c0-.5,0-1,0-1.52,0-.91,0-1.83,0-2.74a1.35,1.35,0,0,1-.66-.5,1.1,1.1,0,0,1-.14-.91,1.26,1.26,0,0,1,.8-.83c.05-1.23,0-2.47,0-3.7,0-.13,0-.29-.08-.38l-1-1a4.68,4.68,0,0,1-.57-.6c0-.62,0-1.24,0-1.85,1,0,2.08,0,3.12,0h5.3c.3,0,.46-.26.65-.44a1.45,1.45,0,0,1-.18-.73,1.15,1.15,0,0,1,1.13-1.07,1.63,1.63,0,0,1,.67.19q2.45-2.42,4.88-4.88a1.24,1.24,0,0,1-.17-.87A1.16,1.16,0,0,1,69.81,79a1.3,1.3,0,0,1,.7.19,4.44,4.44,0,0,0,.46-.43L72.3,77.4m-2.57,1.78a.47.47,0,1,0,.62.52.48.48,0,0,0-.62-.52m-6.51,6.5c-.13.05-.28.15-.29.31s0,.44.19.53a.47.47,0,1,0,.1-.84m30.84,3.27a.5.5,0,0,0-.25.25.45.45,0,0,0,.46.62c.39.05.58-.51.32-.77a.54.54,0,0,0-.53-.11M55.17,95.41a.47.47,0,0,0-.34.67.46.46,0,0,0,.43.25.48.48,0,0,0,.48-.41.49.49,0,0,0-.57-.52m-.06,6.5a.48.48,0,1,0,.57.67.48.48,0,0,0-.57-.67m1.61,3.27a.49.49,0,0,0-.25.66.54.54,0,0,0,.41.25c.2,0,.45-.15.44-.37s0-.28-.06-.39A.49.49,0,0,0,56.71,105.18Z"/><path d="M20.85,79.08a1.15,1.15,0,0,1,1.58.67,1.27,1.27,0,0,1-.14,1.07l2.61,2.62c.75.74,1.48,1.51,2.26,2.23a1.42,1.42,0,0,1,.77-.2,1.16,1.16,0,0,1,1,.88,1.21,1.21,0,0,1-.17,1c.39.45.85.85,1.26,1.29l2.51,2.5c.15.12.09.34.1.51q0,9.7,0,19.4H32q0-9.44,0-18.88a3.3,3.3,0,0,0-.05-.94c-.62-.65-1.26-1.27-1.89-1.91s-1.09-1.1-1.65-1.63a1.49,1.49,0,0,1-.74.12,1.15,1.15,0,0,1-.84-1.69c-.21-.26-.46-.47-.69-.71-.84-.85-1.69-1.69-2.53-2.54-.58-.55-1.11-1.15-1.71-1.68a1.63,1.63,0,0,1-.68.12,1.14,1.14,0,0,1-1-1.2q-7.76,0-15.53,0,0,4.7,0,9.41c0,.13-.09.22-.17.31L3.13,91.15,3,91.37Q3,101.19,3,111H2.36q0-9.18,0-18.36c0-.47,0-.94,0-1.41.5-.53,1-1,1.54-1.56.07-.06.06-.17.06-.25,0-1.94,0-3.88,0-5.82,0-1.4,0-2.8,0-4.2,5.42,0,10.84,0,16.25,0,.25,0,.39-.22.6-.31m.13.1a.52.52,0,0,0-.29.27,1.43,1.43,0,0,0,0,.36.47.47,0,0,0,.78.14.55.55,0,0,0,.08-.5.47.47,0,0,0-.58-.27m6.5,6.5a.45.45,0,0,0-.28.63.47.47,0,0,0,.86,0C28.26,86,27.83,85.54,27.48,85.68Z"/><path d="M72.2,79.88a1.14,1.14,0,0,1,1.24-.9,1.19,1.19,0,0,1,1,.84c.33,0,.66,0,1,0a2.87,2.87,0,0,1,.24-.44,1.14,1.14,0,0,1,1.5-.22,1.41,1.41,0,0,1,.49.66c.33,0,.65,0,1,0a1.46,1.46,0,0,1,.4-.58,1.11,1.11,0,0,1,1.39,0,1.35,1.35,0,0,1,.43.61,8.7,8.7,0,0,0,1,0,1.67,1.67,0,0,1,.36-.55,1.11,1.11,0,0,1,1.42-.08,1.51,1.51,0,0,1,.45.63c.33,0,.65,0,1,0a1.35,1.35,0,0,1,.43-.62,1.11,1.11,0,0,1,1.32,0,1.4,1.4,0,0,1,.46.63c.33,0,.65,0,1,0a1.7,1.7,0,0,1,.36-.56A1.13,1.13,0,0,1,90,79.19a1.4,1.4,0,0,1,.45.63c.61,0,1.22,0,1.84,0,0,3.17,0,6.35,0,9.52a.4.4,0,0,1-.11.36L90.84,91c-.07.08-.18.15-.17.28q0,9.84,0,19.68H90q0-9.81,0-19.63a.3.3,0,0,1,.11-.27L91.3,89.9c.11-.13.3-.23.3-.42,0-2.87,0-5.74,0-8.6l-1.2-.35a1.57,1.57,0,0,1-.61.65,1.12,1.12,0,0,1-1.36-.3c-.08-.11-.15-.23-.22-.34-.34,0-.68,0-1,0a3,3,0,0,1-.27.42,1.14,1.14,0,0,1-1.23.25,1.37,1.37,0,0,1-.66-.67,7.06,7.06,0,0,0-1.05,0,1.34,1.34,0,0,1-.43.55,1.12,1.12,0,0,1-1.29,0,1.35,1.35,0,0,1-.4-.53,7.14,7.14,0,0,0-1.05,0,1.37,1.37,0,0,1-.66.67,1.14,1.14,0,0,1-1.23-.25,2.81,2.81,0,0,1-.27-.42c-.34,0-.68,0-1,0a1.43,1.43,0,0,1-.58.63A1.09,1.09,0,0,1,75.75,81a2.63,2.63,0,0,1-.34-.46c-.34,0-.69,0-1,0A1.88,1.88,0,0,1,74,81a1.1,1.1,0,0,1-1.12.15,1.77,1.77,0,0,1-.51-.41c-.66.65-1.3,1.32-2,2q-2.47,2.47-4.9,5c-.61.63-1.24,1.23-1.84,1.88,0,1.33,0,2.67,0,4q0,7.34,0,14.68c0,.39,0,.79,0,1.18.48.52,1,1,1.48,1.52h-.68c-.48-.51-1-1-1.45-1.51,0-1.57,0-3.15,0-4.72V91.39c.05-.59,0-1.19,0-1.79a6.28,6.28,0,0,1,.51-.54c1.43-1.48,2.9-2.93,4.33-4.4s2.8-2.88,4.21-4.3c.15-.12.1-.32.14-.48m.8-.71a.45.45,0,0,0-.34.48.46.46,0,0,0,.7.38.46.46,0,0,0,.09-.74.45.45,0,0,0-.44-.12m3.22,0a.5.5,0,0,0-.25.7.47.47,0,0,0,.74.06.56.56,0,0,0,.09-.5.47.47,0,0,0-.58-.27m3.28,0a.48.48,0,0,0-.31.65.52.52,0,0,0,.4.27.5.5,0,0,0,.49-.4.48.48,0,0,0-.59-.52m3.28,0a.47.47,0,0,0-.29.75.49.49,0,0,0,.8-.07.48.48,0,0,0-.51-.68m3.22,0a.49.49,0,0,0-.35.53.53.53,0,0,0,.4.4.48.48,0,0,0,.51-.63.47.47,0,0,0-.55-.3m3.22,0a.49.49,0,0,0-.15.82.47.47,0,0,0,.72-.2c0-.17.05-.37-.09-.49A.48.48,0,0,0,89.23,79.17Z"/><path d="M6.33,81.94c1.15,0,2.3,0,3.45,0h9.44c.45,0,.91,0,1.37,0,.64.59,1.23,1.23,1.85,1.84l4.89,4.89c.2.16,0,.46.17.63l.83.83c.17.18.48,0,.64.17l.72.72c.09.1.22.19.2.34q0,1.93,0,3.86a.27.27,0,0,0,.08.23,1.3,1.3,0,0,1,.37.56,1.08,1.08,0,0,1-.24,1.1c-.09.1-.23.19-.2.34,0,1.47,0,2.94,0,4.4a2.77,2.77,0,0,1,.39.53,1.11,1.11,0,0,1-.23,1.26c-.08.09-.2.17-.17.31q0,2.16,0,4.32c0,.12.08.2.16.28a1.1,1.1,0,0,1,.3,1.12,1.62,1.62,0,0,1-.44.65,5.49,5.49,0,0,0,0,.65h-.68c0-.16,0-.32,0-.47a1.24,1.24,0,0,1-.78-.34,1.17,1.17,0,0,1,0-1.67,1.52,1.52,0,0,1,.73-.31c0-1.38,0-2.77,0-4.15a2,2,0,0,1-.69-.28,1.16,1.16,0,0,1-.07-1.72,1.48,1.48,0,0,1,.76-.34c0-1.38,0-2.77,0-4.15a2,2,0,0,1-.59-.21,1.16,1.16,0,0,1,.14-2,3,3,0,0,1,.44-.13c0-1.28,0-2.55,0-3.83,0-.17-.11-.29-.23-.39s-.51,0-.67-.19L27,89.47a1.75,1.75,0,0,1-.22-.25c-.08-.18,0-.42-.11-.57l-5.75-5.76c-.14-.13-.27-.32-.48-.28-4.35,0-8.7,0-13.05,0a1.21,1.21,0,0,1,.13,1.31,2,2,0,0,1-.52.52q0,2.19,0,4.37a1.19,1.19,0,0,1,.54,1.57,1.12,1.12,0,0,1-1,.63,1.3,1.3,0,0,1-.69-.2,2.88,2.88,0,0,0-.42.41,4,4,0,0,0,0,.72c0,.16.15.21.25.31a1.12,1.12,0,0,1,.22,1.5,2,2,0,0,1-.46.41c0,1.43,0,2.86,0,4.29,0,.13.1.19.19.25a1.12,1.12,0,0,1,.38,1.36,1.51,1.51,0,0,1-.55.61c0,.52,0,1,0,1.57,0,.87,0,1.73,0,2.6,0,.1,0,.24.09.29A1.15,1.15,0,0,1,6,106.31a1.28,1.28,0,0,1-.63.87c0,1.27,0,2.55,0,3.82H4.69c0-1.24,0-2.47,0-3.71a1.63,1.63,0,0,1-.68-.41,1.14,1.14,0,0,1-.09-1.4,1.32,1.32,0,0,1,.76-.51c0-.89,0-1.77,0-2.66,0-.52,0-1,0-1.55a1.19,1.19,0,0,1-.95-1.27,1.25,1.25,0,0,1,1-1c0-1.4,0-2.79,0-4.19A1.76,1.76,0,0,1,4,93.87a1.14,1.14,0,0,1,0-1.46A1.5,1.5,0,0,1,4.68,92a5.28,5.28,0,0,1,0-.75c.24-.28.52-.51.76-.78a1.35,1.35,0,0,1-.12-.72,1.22,1.22,0,0,1,.94-1c0-.48,0-1,0-1.44,0-.93,0-1.85,0-2.78a1.37,1.37,0,0,1-.58-.3,1.12,1.12,0,0,1-.29-1.27,1.22,1.22,0,0,1,.86-.71c0-.1,0-.2,0-.3m.09.46a.58.58,0,0,0-.34.27.85.85,0,0,0,0,.41.57.57,0,0,0,.43.28A.5.5,0,0,0,6.94,83c0-.17,0-.37-.1-.49a.47.47,0,0,0-.42-.14M6.3,89a.48.48,0,0,0,0,.86,1.4,1.4,0,0,0,.36,0,.76.76,0,0,0,.23-.23c0-.18.06-.4-.1-.53s-.36-.13-.53-.1m-1.6,3.23a.49.49,0,0,0-.22.68.47.47,0,0,0,.76.08.48.48,0,0,0-.07-.71.62.62,0,0,0-.46-.05M29,95.45a.49.49,0,0,0-.2.66.5.5,0,0,0,.74.12.52.52,0,0,0,0-.69c-.14-.15-.37-.1-.55-.08M4.74,98.68a.42.42,0,0,0-.31.3.48.48,0,0,0,.41.63.53.53,0,0,0,.47-.3.48.48,0,0,0-.2-.59.56.56,0,0,0-.37,0M29.2,101.9a.58.58,0,0,0-.33.18.6.6,0,0,0-.06.5.64.64,0,0,0,.47.27.52.52,0,0,0,.43-.47.49.49,0,0,0-.51-.49M4.74,105.17a.47.47,0,1,0,.6.49.47.47,0,0,0-.6-.49M29,108.46a.47.47,0,0,0-.06.79.62.62,0,0,0,.46.06.51.51,0,0,0,.23-.65A.48.48,0,0,0,29,108.46Z"/><path d="M71.28,82.24c.34-.12.66.08,1,.22.13,0,.25-.11.39-.09,5.74,0,11.47,0,17.21,0,0,1.05,0,2.11,0,3.16a1.68,1.68,0,0,1,.58.63A1.16,1.16,0,0,1,90,87.55c-.07.06-.2.09-.19.2,0,.61,0,1.22,0,1.83a5.66,5.66,0,0,1-.54.56l-.95.95c-.07.08-.16.16-.15.28,0,1.3,0,2.61,0,3.91a2.65,2.65,0,0,1,.47.42,1.14,1.14,0,0,1-.06,1.42c-.12.14-.29.22-.4.36a2.71,2.71,0,0,0,0,.39c0,1.3,0,2.61,0,3.91a1.71,1.71,0,0,1,.57.6,1.12,1.12,0,0,1-.32,1.38c-.11.09-.29.15-.26.33,0,1.4,0,2.8,0,4.2a3.25,3.25,0,0,1,.44.38,1.11,1.11,0,0,1,.13,1.21,1.69,1.69,0,0,1-.55.57,2.16,2.16,0,0,0,0,.55h-.68c0-.16,0-.32,0-.48a1.27,1.27,0,0,1-.84-.73,1.13,1.13,0,0,1,.23-1.2,2,2,0,0,1,.61-.37c0-1.4,0-2.8,0-4.2a1.35,1.35,0,0,1-.79-.61,1.12,1.12,0,0,1,.21-1.34,1.37,1.37,0,0,1,.56-.32c.06-1.39.05-2.79,0-4.19-.21-.17-.52-.23-.68-.48A1.16,1.16,0,0,1,87,95.52a2.59,2.59,0,0,1,.55-.31c0-1.24,0-2.49,0-3.73,0-.12,0-.27.09-.36l1.44-1.44c.13-.11.08-.29.09-.44,0-.49,0-1,0-1.48a1.79,1.79,0,0,1-.57-.31,1.16,1.16,0,0,1-.28-1.24,1.24,1.24,0,0,1,.84-.73,4.62,4.62,0,0,0,0-.78c0-.55,0-1.1,0-1.65H72.65a1.47,1.47,0,0,1-.14.88,1.23,1.23,0,0,1-1,.61,4,4,0,0,1-.49-.1c-1.67,1.63-3.3,3.3-5,4.94-.1.11-.26.21-.23.38q0,9,0,18c0,.58,0,1.17,0,1.75.48.53,1,1,1.5,1.53h-.64l-1.06-.91c0-.32-.54-.45-.48-.82q0-9.07,0-18.13c0-.51,0-1,0-1.54.62-.68,1.3-1.31,1.95-2L69.8,85c.26-.29.57-.54.81-.85a1.44,1.44,0,0,1-.26-.7,1.16,1.16,0,0,1,.93-1.19m.17.15a.5.5,0,0,0-.31.19.47.47,0,1,0,.85.29.49.49,0,0,0-.53-.48m17.78,3.28a.5.5,0,0,0-.23.75.49.49,0,0,0,.81-.11.72.72,0,0,0-.06-.47.49.49,0,0,0-.52-.16m-1.5,9.73a.47.47,0,1,0,.43.71.48.48,0,0,0-.43-.71m-.05,6.5a.48.48,0,0,0-.12.91c.2,0,.46,0,.58-.16a.49.49,0,0,0-.46-.75m-.17,6.57a.46.46,0,0,0-.1.72.49.49,0,0,0,.55.11.48.48,0,0,0,.09-.8A.61.61,0,0,0,87.51,108.47Z"/><path d="M8.88,84.48c.72,0,1.45,0,2.17,0h9.38c.18,0,.34.09.32.42l3.69,3.67c.7,0,.25.54.52.76.6.59,1.18,1.19,1.79,1.78.23.18.12.49.14.74q0,9.58,0,19.16h-.68q0-9.38,0-18.76c0-.33,0-.67,0-1-.62-.66-1.28-1.29-1.92-1.93-.17-.17,0-.48-.17-.64l-3.22-3.22c-.14-.12-.25-.32-.46-.29-3.62,0-7.25,0-10.87,0,0,.61,0,1.22,0,1.84,0,.86,0,1.72,0,2.57a3.19,3.19,0,0,1-.47.51c-.37.39-.77.76-1.14,1.16,0,.37,0,.74,0,1.12q0,9.32,0,18.65H7.24q0-9.84,0-19.68l.06-.16c.5-.52,1-1,1.53-1.54,0-.6,0-1.21,0-1.81C8.85,86.7,8.84,85.59,8.88,84.48Z"/><path d="M72.41,84.93c.47,0,1,0,1.43,0h9.61c1.28,0,2.56,0,3.83,0,0,1.15,0,2.3,0,3.45,0,.41,0,.82,0,1.22-.5.54-1,1-1.55,1.57-.07.07,0,.17-.05.25,0,6.52,0,13,0,19.57H85q0-7.4,0-14.79c0-1.65,0-3.3,0-4.94a8,8,0,0,1,.74-.77c.29-.31.62-.58.88-.91,0-1.33,0-2.66,0-4H72.52c-.12,0-.19.09-.27.16C71.18,86.84,70.08,87.91,69,89a1.34,1.34,0,0,1,.34.53A1.15,1.15,0,0,1,69,90.77a1.62,1.62,0,0,1-.56.26c0,1.39,0,2.78,0,4.17a1.9,1.9,0,0,1,.66.37,1.17,1.17,0,0,1,.3,1.07,1.2,1.2,0,0,1-1,.9c0,1.39,0,2.79,0,4.18.15.07.32.12.47.21a1.22,1.22,0,0,1,.54,1,1.24,1.24,0,0,1-.45.89,1.89,1.89,0,0,1-.55.25c0,1.39,0,2.79,0,4.18a1.75,1.75,0,0,1,.66.37,1.11,1.11,0,0,1,.26,1.19,4,4,0,0,1-.21.38c.25.31.54.57.82.85h-.69c-.19-.17-.36-.37-.56-.54a1.52,1.52,0,0,1-.9,0,1.16,1.16,0,0,1-.63-1.45,1.4,1.4,0,0,1,.55-.66c0-1.48,0-3,0-4.43a1.19,1.19,0,0,1-.6-1.24,1.4,1.4,0,0,1,.6-.84c0-1.43,0-2.86,0-4.3,0-.16-.15-.22-.25-.31a1.13,1.13,0,0,1-.27-1.32,1.46,1.46,0,0,1,.52-.58c0-1.46,0-2.93,0-4.39a1.69,1.69,0,0,1-.54-.61,1.15,1.15,0,0,1,.25-1.26,1.17,1.17,0,0,1,.94-.32c.08,0,.19,0,.26,0,.64-.63,1.27-1.27,1.9-1.9s1.24-1.27,1.88-1.87M68,89c-.27.09-.26.4-.23.63a.44.44,0,0,0,.44.24c.38.06.59-.48.35-.74A.52.52,0,0,0,68,89m0,6.49a.7.7,0,0,0-.23.23c0,.17-.06.38.08.5a.46.46,0,1,0,.65-.65c-.13-.14-.34-.08-.5-.08m.12,6.46a.48.48,0,0,0-.34.68c.05.19.27.23.44.27a.49.49,0,0,0,.39-.71c-.11-.15-.29-.31-.49-.24M68,108.46a.38.38,0,0,0-.24.43.41.41,0,0,0,.5.44c.4,0,.53-.57.26-.81A.7.7,0,0,0,68,108.46Z"/><path d="M11.45,87h9c.23,0,.35.22.51.34l1.42,1.41a1.36,1.36,0,0,1,.77,0,1.16,1.16,0,0,1,.78,1.15,2.37,2.37,0,0,1-.2.63,6.26,6.26,0,0,0,.48.5c.06.07.15.14.14.25q0,9.84,0,19.68h-.65q0-9.21,0-18.42c0-.43,0-.87,0-1.3a1,1,0,0,0-.37-.38,1.49,1.49,0,0,1-.9.08,1.18,1.18,0,0,1-.8-1.16c0-.2.12-.4.08-.6s0-.45-.16-.6c-.31-.3-.6-.63-.93-.91-1.32,0-2.64,0-4,0H12.1c0,.63,0,1.25,0,1.88a8,8,0,0,1-.65.68c-.28.29-.58.57-.86.86-.12.11-.07.28-.09.42,0,.75,0,1.5,0,2.25s0,1.3,0,2c0,1,0,2.07,0,3.11,0,.73,0,1.46,0,2.19,0,1.42,0,2.84,0,4.26-.05.81,0,1.61,0,2.42,0,1.09,0,2.19,0,3.28H9.8q0-9.06,0-18.13c0-.55,0-1.1,0-1.64.5-.54,1-1.05,1.57-1.58l.05-.13c0-.84,0-1.67,0-2.51M22.53,89a.48.48,0,0,0-.09.77.63.63,0,0,0,.5.08.58.58,0,0,0,.28-.39A.47.47,0,0,0,23,89,.62.62,0,0,0,22.53,89Z"/><path d="M72.34,87.57a.33.33,0,0,1,.29-.09H84.72c.06.57,0,1.14,0,1.71,0,.17.05.38-.1.51-.5.51-1,1-1.52,1.53a3.46,3.46,0,0,0,0,.76,1.39,1.39,0,0,1,.66.44,1.15,1.15,0,0,1,0,1.34,1.39,1.39,0,0,1-.71.5c0,1.4,0,2.81,0,4.22a2.16,2.16,0,0,1,.46.24,1.13,1.13,0,0,1,.35,1.35,1.15,1.15,0,0,1-.8.68,8,8,0,0,0,0,.93c0,1.1,0,2.21,0,3.31a1.37,1.37,0,0,1,.64.41,1.12,1.12,0,0,1,.21,1.06,1.29,1.29,0,0,1-.85.82c0,1.24,0,2.48,0,3.72H71.8c-.44-.44-.87-.88-1.31-1.3-.08-.09-.21-.17-.19-.31q0-8.06,0-16.11c0-1.22,0-2.44,0-3.66.26-.31.58-.57.85-.87l1.18-1.18M71,89a.26.26,0,0,0-.07.23q0,9.44,0,18.88a5.16,5.16,0,0,0,0,.84c.47.49,1,1,1.44,1.45.7,0,1.41,0,2.11,0,2.64,0,5.28,0,7.92,0,0-1.23,0-2.47,0-3.7a4.53,4.53,0,0,1-.38-.3A1.15,1.15,0,0,1,81.9,105a1.37,1.37,0,0,1,.54-.5c0-1.44,0-2.88,0-4.32a4.8,4.8,0,0,1-.39-.29,1.18,1.18,0,0,1-.24-1.2,1.31,1.31,0,0,1,.63-.69c0-1.44,0-2.88,0-4.32-.13-.13-.33-.2-.44-.36A1.18,1.18,0,0,1,81.92,92a1.24,1.24,0,0,1,.51-.44c0-.28,0-.55,0-.83.51-.55,1.08-1.06,1.59-1.62,0-.48,0-1,0-1.45a1.69,1.69,0,0,0-.44,0H76c-1.19,0-2.38,0-3.56,0-.47.45-.93.92-1.39,1.38m11.71,3.14a.52.52,0,0,0-.33.53.49.49,0,1,0,.33-.53m0,6.51a.46.46,0,0,0-.28.64.47.47,0,1,0,.28-.64m0,6.5a.46.46,0,0,0-.06.87.47.47,0,0,0,.66-.27C83.48,105.43,83.06,105,82.73,105.18Z"/><path d="M13.32,90.25c.1-.08.17-.23.32-.22h6.8a.28.28,0,0,1,.24.07c.32.29.62.61.93.92.08.09.2.17.19.31q0,9.84,0,19.68h-.68q0-9.38,0-18.76c0-.34,0-.68,0-1a2.89,2.89,0,0,0-.45-.46c-.07-.07-.18,0-.26-.05H13.6c-.2.07-.33.28-.48.42s-.09.27-.1.41c0,1.22,0,2.44,0,3.66a1.24,1.24,0,0,1,1,.63,1.15,1.15,0,0,1-.46,1.55,2.76,2.76,0,0,1-.52.17c0,1.38,0,2.76,0,4.14a1.53,1.53,0,0,1,.75.35,1.12,1.12,0,0,1,.26,1.3,1.18,1.18,0,0,1-1,.68c0,1.39,0,2.78,0,4.18a1.38,1.38,0,0,1,.78.38,1.11,1.11,0,0,1,.24,1.23,1.18,1.18,0,0,1-1,.72c0,.16,0,.31,0,.47h-.68a5.19,5.19,0,0,0,0-.66,2,2,0,0,1-.41-.56,1.12,1.12,0,0,1,.24-1.18c.08-.09.21-.17.19-.3,0-1.46,0-2.91,0-4.37,0-.22-.29-.33-.37-.53a1.1,1.1,0,0,1,.16-1.26c.08-.1.22-.19.21-.34,0-1.46,0-2.91,0-4.37,0-.14-.14-.2-.2-.29a1.13,1.13,0,0,1,0-1.51c.08-.1.23-.19.21-.34l-.06-2c.13-.67,0-1.36.08-2,.3-.33.64-.63.95-1M13,95.4a.44.44,0,0,0-.46.48c-.07.42.57.62.8.3A.48.48,0,0,0,13,95.4m-.1,6.5a.48.48,0,1,0,.39.12.41.41,0,0,0-.39-.12m-.12,6.55c-.27.08-.27.41-.22.63a.49.49,0,0,0,.66.2.5.5,0,0,0,.09-.77A.56.56,0,0,0,12.8,108.46Z"/><path d="M110.63,91.23c.11-.14.25-.26.37-.39v5c-.17.07-.39.14-.45.34s.16.59.45.65v5.5c-.18.06-.4.14-.45.35s.15.61.45.64v5.54a.53.53,0,0,0-.45.33.49.49,0,0,0,.45.64V111h-.41a3.88,3.88,0,0,0,0-.54,1.17,1.17,0,0,1-.66-1.45,1.34,1.34,0,0,1,.66-.73c0-.86,0-1.71,0-2.57,0-.58,0-1.17,0-1.75a1.61,1.61,0,0,1-.47-.35,1.33,1.33,0,0,1-.27-.72,1.3,1.3,0,0,1,.34-.82c.12-.12.29-.17.4-.29,0-.72,0-1.45,0-2.17s0-1.43,0-2.15A1.44,1.44,0,0,1,110,97a1.11,1.11,0,0,1-.13-1,1.4,1.4,0,0,1,.68-.77c0-1.14,0-2.29,0-3.43A3.09,3.09,0,0,1,110.63,91.23Z"/></g></g></svg>