<svg xmlns="http://www.w3.org/2000/svg" viewBox="0 0 558.3 359.17"><defs><style>.cls-1,.cls-10,.cls-2,.cls-3,.cls-4,.cls-5,.cls-6,.cls-7,.cls-8{fill:#02020b;}.cls-1{stroke:#fff;}.cls-1,.cls-2{stroke-width:2px;}.cls-10,.cls-2,.cls-3,.cls-4,.cls-5,.cls-6,.cls-7,.cls-8,.cls-9{stroke:#16f6f6;}.cls-3{stroke-linecap:round;stroke-width:1.62px;}.cls-4{stroke-width:1.81px;}.cls-5{stroke-width:1.9px;}.cls-6{stroke-width:1.48px;}.cls-7{stroke-width:2.27px;}.cls-8{stroke-width:1.8px;}.cls-9{fill:#ece4b7;stroke-width:1.45px;}.cls-10{stroke-width:1.99px;}</style></defs><title>lights</title><g id="Layer_2" data-name="Layer 2"><g id="background"><path class="cls-1" d="M177.23,125.26c22,3,38.24,19.58,38.24,39,0,21.83-20.26,39.52-45.25,39.52S125,186.13,125,164.3h0c0-19.53,16.33-36.13,38.43-39.07"/><path class="cls-2" d="M163.41,125.24A79.55,79.55,0,0,0,147.53,130s14.26-5.49,15.06-8.26c1.42-4.92-3.57-8.26-3.57-8.26l2.7-4.56-3.32-5.65,6.39-5,14-.54,5.78,6.52-3.44,3.37,2.21,2.93-3.81,5.21s-2.15,4.94,2.89,8.64,9.32,4.22,16.41,8.8c-7-4.85-15-6.88-21.41-7.82"/><path class="cls-3" d="M166.22,97c0-2.78,2.47-5.07,5.62-5.11s5.75,2.16,5.82,4.94"/><path class="cls-1" d="M175.36,116.5l-8.05-.12s-12.72,24.51-14.62,37.68c-.2,1.41-1.08,3.62.37,4.24,2.76,1.18,7.63-1.85,7.62-4.56,0-.78.5-3.82-2.21-1.3-2.71,2.36-.57,5,1.88,6.76s5.22-1.55,6.53-3.18c1.55-1.93.73-4.63-2-2.64s-1.46,4.79,0,6.56a4.27,4.27,0,0,0,4.08,1.18,5.58,5.58,0,0,0,3.69-4.59c.1-1.08-.27-3-1.63-2.93-2.65.2-3.37,5.13-.49,7,4.06,1.63,5.61.42,7-1.29,1.16-1.42,1.28-5.16-.7-5.21-2.37-.06-2.74,4.6-1.21,6.2,1.31,1.38,4.74,1.36,6.11,0,1.53-1.48,1.61-5.81-.65-6-2.75-.23-2.57,6-.2,6.91,1.78.71,4.78-1.85,4.31-3.52-3.36-11.86-7-32.45-9.83-41.21Z"/><path class="cls-4" d="M163.24,116.18l15.61.14-.2,3.8-15.2.35Z"/><path class="cls-2" d="M159.21,112.68A63.93,63.93,0,0,1,171.68,111c3.92,0,9.86,1.83,9.86,1.83l2.34-3.56-2.77-1.59-19.21.42Z"/><path class="cls-5" d="M160.38,104.86s7-2.15,11.3-1.65a88.59,88.59,0,0,1,10.56,2.23l2.53-2L179,96.93l-14,.54-6.39,5Z"/><path class="cls-1" d="M432.79,266.33c35.65,3.52,61.92,22.89,61.92,45.64,0,25.52-32.8,46.2-73.26,46.2s-73.26-20.68-73.26-46.2h0c0-22.83,26.44-42.23,62.23-45.67"/><path class="cls-2" d="M410.42,266.3a166.82,166.82,0,0,0-25.72,5.56s23.09-6.41,24.38-9.65c2.3-5.75-5.77-9.65-5.77-9.65l4.38-5.33-5.37-6.6,10.35-5.84,22.69-.63,9.36,7.62-5.57,3.94,3.58,3.43-6.17,6.1s-3.48,5.78,4.68,10.1,15.1,4.93,26.57,10.29c-11.36-5.67-24.21-8-34.66-9.14"/><path class="cls-3" d="M415,233.35c-.06-3.25,4-5.92,9.1-6s9.31,2.52,9.42,5.77"/><path class="cls-1" d="M429.77,256.4l-13-.13s-20.6,28.65-23.67,44.05c-.33,1.64-1.74,4.23.6,5,4.48,1.38,12.36-2.16,12.34-5.33,0-.92.81-4.47-3.58-1.52-4.39,2.76-.93,5.86,3.05,7.9s8.45-1.81,10.58-3.72c2.51-2.25,1.18-5.41-3.26-3.09s-2.37,5.6,0,7.67c1.36,1.2,4.41,1.85,6.61,1.38,3.27-.69,5.7-3.18,6-5.37.16-1.27-.44-3.54-2.64-3.42-4.28.23-5.46,6-.79,8.17,6.57,1.9,9.09.5,11.35-1.5,1.87-1.66,2.08-6-1.13-6.09-3.84-.07-4.43,5.37-2,7.25,2.12,1.61,7.68,1.59,9.9,0,2.48-1.73,2.61-6.79-1.06-7-4.45-.27-4.17,7-.32,8.08,2.89.83,7.75-2.16,7-4.12-5.44-13.87-11.27-37.94-15.92-48.17Z"/><path class="cls-4" d="M410.14,255.4l25.27.16-.33,4.44-24.62.41Z"/><path class="cls-2" d="M403.61,251.63a141.12,141.12,0,0,1,20.2-1.94c6.35,0,16,2.14,16,2.14l3.79-4.16-4.48-1.86-31.1.49Z"/><path class="cls-5" d="M405.52,242.48s11.33-2.51,18.3-1.93,17.1,2.6,17.1,2.6l4.09-2.32-9.36-7.62-22.69.63-10.35,5.84Z"/><path class="cls-1" d="M51.75,207.86c21.38,3,37.14,19.58,37.14,39,0,21.83-19.68,39.53-43.95,39.53S1,268.74,1,246.91H1c0-19.53,15.86-36.13,37.33-39.08"/><path class="cls-2" d="M38.33,207.84A75.66,75.66,0,0,0,22.9,212.6s13.85-5.49,14.63-8.26c1.38-4.92-3.46-8.26-3.46-8.26l2.63-4.56-3.22-5.65,6.21-5,13.61-.54,5.61,6.52-3.34,3.37,2.15,2.93L54,198.36A7.38,7.38,0,0,0,56.82,207c4.9,3.69,9.06,4.22,15.94,8.8C65.95,211,58.24,208.93,52,208"/><path class="cls-3" d="M41.06,179.64a5.3,5.3,0,0,1,5.46-5.11,5.35,5.35,0,0,1,5.65,4.94"/><path class="cls-1" d="M49.94,199.1,42.12,199s-12.36,24.52-14.2,37.69c-.2,1.41-1,3.62.36,4.24,2.69,1.18,7.42-1.85,7.4-4.56,0-.78.49-3.82-2.15-1.3-2.64,2.36-.56,5,1.83,6.76s5.07-1.55,6.35-3.18c1.51-1.93.71-4.63-2-2.64s-1.42,4.79,0,6.56a4.07,4.07,0,0,0,4,1.18,5.55,5.55,0,0,0,3.58-4.6c.1-1.08-.26-3-1.58-2.93-2.57.2-3.28,5.13-.48,7,3.94,1.63,5.45.42,6.81-1.29,1.12-1.42,1.25-5.17-.68-5.21-2.31-.06-2.66,4.6-1.17,6.21,1.27,1.38,4.6,1.36,5.94,0,1.49-1.48,1.56-5.81-.64-6-2.67-.23-2.5,6-.19,6.91,1.73.71,4.65-1.85,4.19-3.52-3.26-11.86-6.76-32.46-9.55-41.22Z"/><path class="cls-4" d="M38.16,198.31l15.16.14-.2,3.8-14.77.35Z"/><path class="cls-2" d="M34.25,195.28a60.43,60.43,0,0,1,12.12-1.66c3.81,0,9.58,1.83,9.58,1.83l2.27-3.56-2.69-1.59-18.66.42Z"/><path class="cls-5" d="M35.39,187.45s6.8-2.15,11-1.65A83.92,83.92,0,0,1,56.63,188l2.46-2-5.61-6.52-13.61.54-6.21,5Z"/><path class="cls-1" d="M296.91,175.13c22.79,2.94,39.59,19.11,39.59,38.11,0,21.3-21,38.57-46.84,38.57s-46.84-17.27-46.84-38.57h0c0-19.06,16.9-35.26,39.78-38.13"/><path class="cls-2" d="M282.61,175.1a86,86,0,0,0-16.44,4.65s14.76-5.35,15.59-8.06c1.47-4.8-3.69-8.06-3.69-8.06l2.8-4.45-3.44-5.51,6.62-4.88,14.51-.53,6,6.36L301,157.9l2.29,2.86-3.95,5.09s-2.23,4.82,3,8.43,9.65,4.12,17,8.59c-7.26-4.74-15.48-6.71-22.16-7.63"/><path class="cls-3" d="M285.51,147.59c0-2.71,2.56-4.94,5.82-5s6,2.11,6,4.82"/><path class="cls-1" d="M295,166.26l-8.34-.11s-13.17,23.92-15.13,36.78c-.21,1.37-1.11,3.53.38,4.14,2.86,1.15,7.9-1.81,7.89-4.45,0-.76.52-3.73-2.29-1.27s-.6,4.9,2,6.59,5.4-1.51,6.76-3.1c1.61-1.88.75-4.52-2.08-2.58s-1.52,4.67,0,6.4a4.6,4.6,0,0,0,4.23,1.15,5.52,5.52,0,0,0,3.82-4.48c.1-1.06-.28-3-1.69-2.86-2.74.19-3.49,5-.51,6.82,4.2,1.59,5.81.41,7.25-1.26,1.2-1.39,1.33-5-.72-5.09-2.46-.05-2.83,4.49-1.25,6.06,1.36,1.35,4.91,1.32,6.33,0,1.59-1.45,1.67-5.67-.68-5.86-2.85-.22-2.66,5.82-.2,6.75,1.85.7,5-1.8,4.46-3.44-3.48-11.58-7.21-31.67-10.18-40.22Z"/><path class="cls-4" d="M282.43,166.26l16.16.14-.21,3.71-15.74.34Z"/><path class="cls-2" d="M278.25,162.85a69.94,69.94,0,0,1,12.91-1.62c4.06,0,10.21,1.78,10.21,1.78l2.42-3.47L300.94,158l-19.88.41Z"/><path class="cls-5" d="M279.47,155.21s7.24-2.1,11.7-1.61a96.53,96.53,0,0,1,10.93,2.17l2.62-1.94-6-6.36-14.51.53-6.62,4.88Z"/><path class="cls-1" d="M525,128.6c18.58,2.85,32.27,18.5,32.27,36.89,0,20.62-17.09,37.34-38.18,37.34s-38.18-16.72-38.18-37.34h0c0-18.45,13.78-34.13,32.43-36.91"/><path class="cls-2" d="M513.38,128.57a62,62,0,0,0-13.4,4.5s12-5.18,12.71-7.8c1.2-4.64-3-7.8-3-7.8l2.28-4.31-2.8-5.34,5.39-4.72,11.83-.51,4.88,6.16-2.9,3.18,1.87,2.77L527,119.62a7.37,7.37,0,0,0,2.44,8.16c4.25,3.49,7.87,4,13.85,8.31a39.57,39.57,0,0,0-18.06-7.39"/><path class="cls-3" d="M515.74,101.94a4.83,4.83,0,0,1,9.65-.17"/><path class="cls-1" d="M523.46,120.32l-6.8-.11s-10.73,23.16-12.33,35.6c-.17,1.33-.91,3.42.31,4,2.33,1.11,6.44-1.75,6.43-4.31,0-.74.42-3.61-1.87-1.23s-.49,4.74,1.59,6.38,4.4-1.46,5.51-3c1.31-1.82.61-4.37-1.7-2.5s-1.24,4.53,0,6.2a3.36,3.36,0,0,0,3.45,1.12,5.19,5.19,0,0,0,3.11-4.34c.08-1-.23-2.86-1.37-2.77-2.23.18-2.85,4.85-.41,6.61,3.42,1.54,4.74.4,5.91-1.22,1-1.34,1.08-4.88-.59-4.92-2-.05-2.31,4.34-1,5.86,1.1,1.3,4,1.28,5.16,0s1.36-5.49-.55-5.67c-2.32-.22-2.17,5.63-.17,6.53,1.5.67,4-1.74,3.64-3.33-2.83-11.21-5.87-30.66-8.29-38.94Z"/><path class="cls-4" d="M513.23,120.19l13.17.13-.17,3.59-12.83.33Z"/><path class="cls-2" d="M509.83,116.71a48.58,48.58,0,0,1,10.53-1.57c3.31,0,8.32,1.73,8.32,1.73l2-3.36-2.33-1.5-16.21.4Z"/><path class="cls-5" d="M510.82,109.32s5.9-2,9.54-1.56a67.92,67.92,0,0,1,8.91,2.1L531.4,108l-4.88-6.16-11.83.51-5.39,4.72Z"/><path class="cls-6" d="M520.34,96.15V0"/><path class="cls-7" d="M424.33,227.36V0"/><path class="cls-8" d="M291.29,143.22V0"/><path class="cls-9" d="M172.68,92.14V0"/><path class="cls-10" d="M46.55,175.27V0"/></g></g></svg>