<svg xmlns="http://www.w3.org/2000/svg" viewBox="0 0 320.25 320.25"><defs><style>.cls-1{fill:none;stroke-width:10px;}.cls-1,.cls-2{stroke:#ece4b7;stroke-miterlimit:10;}.cls-2{fill:#ece4b7;stroke-width:0.25px;}</style></defs><title>linkedin-icon</title><g id="Layer_2" data-name="Layer 2"><g id="components"><path class="cls-1" d="M237.15,236.52V177c0-30.71-16.64-45-38.21-45-17.39,0-25.29,9.82-30,16.64V134.25H136V236.52h33v-58a22.16,22.16,0,0,1,1.29-8.08c2.37-6,8-12.15,17-12.15,11.81,0,16.86,9.16,16.86,22.57v55.67Z"/><path class="cls-1" d="M100.88,83.73c-10.78,0-17.78,7.56-17.78,17.56,0,9.82,6.82,17.56,17.36,17.56h.24c11,0,17.78-7.74,17.78-17.56C118.24,91.24,111.66,83.73,100.88,83.73Z"/><rect class="cls-1" x="83.2" y="134.25" width="32.99" height="102.27"/><path class="cls-2" d="M160.13.13a160,160,0,1,0,160,160A160,160,0,0,0,160.13.13Zm106,266A150,150,0,0,1,54.09,54.09,150,150,0,0,1,266.16,266.16Z"/></g></g></svg>